<svg><defs><filter id="a" width="71" height="57" x="-6" y="-6" color-interpolation-filters="sRGB" filterUnits="userSpaceOnUse"><feComponentTransfer result="srcRGB"/><feGaussianBlur in="SourceAlpha" stdDeviation="2"/><feOffset/><feColorMatrix values="0 0 0 0 0 0 0 0 0 0 0 0 0 0 0 0 0 0 0.6 0"/><feMerge><feMergeNode/><feMergeNode in="SourceGraphic"/></feMerge><feComponentTransfer/></filter></defs><g filter="url(#a)"><svg xmlns="http://www.w3.org/2000/svg" aria-hidden="true" data-bbox="55.753 224.481 1266.453 955.644" data-type="color" viewBox="55.753 224.481 1266.453 955.644"><path fill="#333" d="m158.451 224.743 5.64-.01a5541.4 5541.4 0 0 1 15.505-.002c5.623.003 11.245-.005 16.867-.012 9.855-.01 19.71-.013 29.564-.011 10.572.002 21.144 0 31.717-.007l2.024-.002 8.165-.005a126466.152 126466.152 0 0 1 94.308-.028h2.296c16.802-.001 33.603-.006 50.404-.01l20.76-.007h2.317a424590.164 424590.164 0 0 1 173.417-.02c52.232.002 104.463-.013 156.695-.04a1253123.848 1253123.848 0 0 1 41.933-.022 188927.35 188927.35 0 0 1 77.313-.023 390821.155 390821.155 0 0 1 74.746-.001c24.412 0 48.823-.011 73.235-.028a59471.407 59471.407 0 0 1 83.98-.004l2.02.001c11.178.005 22.357-.006 33.536-.02 9.734-.013 19.467-.01 29.201.004 5.545.008 11.09.01 16.634-.007 5.052-.014 10.104-.01 15.156.008 1.809.004 3.617 0 5.426-.01 14.963-.084 29.718 1.672 43.565 7.763l2.106.904c21.79 9.682 38.658 28.11 48.019 49.846 5.014 13.242 7.333 26.86 7.2 41.004l-.008 3.5c-.01 3.194-.027 6.387-.048 9.58-.02 3.503-.03 7.005-.039 10.507-.016 5.367-.035 10.734-.058 16.1a9343.828 9343.828 0 0 0-.073 32.857 1784707.275 1784707.275 0 0 1-.011 13.528c-.008 10.539-.023 21.078-.039 31.617l-.004 2.99a162283.349 162283.349 0 0 1-.183 100.183l-.006 3.376c-.036 18.189-.06 36.377-.081 54.565-.022 18.815-.055 37.63-.099 56.444a20076.21 20076.21 0 0 0-.05 34.616 9523.09 9523.09 0 0 1-.047 23.628 3456.24 3456.24 0 0 0-.02 13.592c.004 4.156-.006 8.311-.027 12.467a629.44 629.44 0 0 0 0 4.477c.087 27.025-8.337 51.178-26.97 70.97-18.173 17.678-43.992 25.165-68.912 25.14l-2.796.009c-3.075.008-6.15.01-9.225.011l-6.634.015c-5.996.014-11.992.02-17.988.024-3.748.003-7.497.007-11.245.012-10.392.012-20.784.022-31.176.026h-2.012l-2.016.001a878060.768 878060.768 0 0 0-6.071.002c-10.838.004-21.675.022-32.512.045-11.144.024-22.289.036-33.433.037-6.25.001-12.5.007-18.75.025-5.879.017-11.757.019-17.636.01-2.153 0-4.306.003-6.46.013-2.948.013-5.895.007-8.843-.003l-2.56.024c-7.656-.063-15.896-1.362-21.668-6.767l-1.906-1.71c-4.182-5.023-4.017-10.412-3.91-16.68.561-5.742 2.589-9.409 6.503-13.547 6.769-4.061 13.47-5.13 21.253-5.066l2.749-.014c3.017-.012 6.033-.002 9.05.008 2.172-.005 4.344-.01 6.517-.017 4.668-.011 9.337-.014 14.005-.01 7.394.007 14.788-.009 22.182-.028 15.707-.038 31.413-.05 47.12-.06 16.934-.012 33.869-.027 50.803-.071a6336.72 6336.72 0 0 1 22.012-.016c4.583.002 9.166-.009 13.75-.023 2.11-.004 4.22-.003 6.331.004 19.013.056 39.556-.327 54.04-14.395 11.496-13.773 12.301-29.93 12.262-47.047.003-1.839.006-3.678.011-5.517.01-5.037.008-10.075.004-15.112-.002-5.44.007-10.878.014-16.317.013-10.65.015-21.3.012-31.95a37226.589 37226.589 0 0 1 .01-37.22c.01-20.807.01-41.613.005-62.42v-2.003l-.002-4.012c-.005-20.806.003-41.612.021-62.419.02-23.392.031-46.785.027-70.178-.001-12.38.001-24.759.015-37.139.012-10.539.014-21.078.001-31.617-.005-5.375-.007-10.75.005-16.124.011-4.926.008-9.851-.006-14.777-.002-1.776 0-3.553.008-5.33.07-16.49-1.566-32.415-13.394-45.005-14.569-13.255-34.434-12.965-52.927-12.941l-5.545-.006c-5.09-.004-10.179-.003-15.268 0-5.533.001-11.066-.003-16.599-.006-9.7-.005-19.402-.007-29.103-.006-13.751.002-27.502-.002-41.253-.007a244993.189 244993.189 0 0 0-92.832-.014h-2.261c-16.536 0-33.073-.003-49.609-.005l-20.428-.003h-2.28a822307.447 822307.447 0 0 0-170.662-.01 543750.268 543750.268 0 0 1-193.098-.03l-2.417-.001c-24.584-.007-49.167-.01-73.751-.012h-2.339a756796.499 756796.499 0 0 0-73.547 0c-24.03 0-48.06-.006-72.09-.015-24.205-.008-48.409-.01-72.613-.004-15.016.004-30.033.003-45.05-.007-9.578-.006-19.156-.005-28.735.002-5.459.004-10.918.005-16.377-.003-4.97-.007-9.939-.006-14.909.004-1.783.001-3.566 0-5.35-.006-17.638-.05-37.445.17-50.95 13.257-12.639 13.524-13.3 29.487-13.267 47.072-.003 1.841-.008 3.683-.013 5.525-.012 5.045-.012 10.09-.01 15.135 0 5.447-.01 10.894-.02 16.342-.017 10.666-.022 21.333-.023 32-.001 8.672-.005 17.344-.012 26.016a94952.077 94952.077 0 0 0-.025 79.83c.002 20.84-.013 41.68-.04 62.519a49918.72 49918.72 0 0 0-.047 70.299c0 12.4-.005 24.8-.026 37.2-.018 10.557-.023 21.115-.01 31.673.007 5.383.008 10.766-.01 16.149a2149.2 2149.2 0 0 0 .005 14.806c.003 1.778 0 3.556-.012 5.334-.083 14.192 1.15 28.062 9.51 40.1l1.302 1.887c7.463 9.692 19.572 13.902 31.316 15.652 4.602.551 9.157.605 13.788.6l2.774.008c3.05.008 6.099.01 9.149.011l6.58.015c4.716.012 9.431.02 14.147.026 7.459.011 14.918.031 22.377.054 10.46.03 20.92.06 31.38.085l2.01.005c10.747.026 21.494.045 32.241.062 11.05.017 22.101.046 33.152.085 6.198.02 12.396.036 18.594.038 5.828.003 11.657.018 17.485.045 2.136.007 4.273.01 6.409.006 2.921-.004 5.843.01 8.765.03l2.545-.017c7.825.087 15.296 1.718 20.987 7.408 4.41 6.3 4.565 12.492 4 20-1.653 5.93-4.732 9.893-10 13-6.239 2.604-11.816 3.435-18.534 3.381l-2.78.014c-3.05.012-6.101.003-9.152-.007l-6.592.016c-5.955.014-11.91.009-17.865 0-6.25-.008-12.5-.001-18.751.003-11.18.006-22.358-.003-33.537-.018a11329.24 11329.24 0 0 0-30.293.002c-11.757.017-23.515.022-35.273.014-6.212-.005-12.423-.006-18.635.004-5.852.009-11.705.003-17.557-.015a1517.04 1517.04 0 0 0-6.4.004c-16.229.046-32.705-.615-48.131-6.21l-2.238-.784c-21.46-7.756-37.604-23.376-47.45-43.779-6.87-15.48-9.115-30.482-9.09-47.291-.006-1.557-.011-3.114-.018-4.67-.016-4.251-.02-8.502-.02-12.752-.005-4.598-.02-9.196-.033-13.795-.023-7.971-.038-15.943-.048-23.915-.014-11.595-.04-23.19-.068-34.786-.046-18.908-.082-37.815-.113-56.722a96297.273 96297.273 0 0 0-.142-71.426c-.064-28.824-.125-57.649-.179-86.473l-.006-2.978a34249.705 34249.705 0 0 1-.058-42.26l-.003-2.646c-.012-10.83-.049-21.66-.12-32.49-.033-5.25-.058-10.5-.08-15.75-.014-3.405-.036-6.809-.069-10.213-.29-30.433 4.459-57.06 25.235-80.458l1.824-2.074C94.906 240.034 111.958 231.101 129 227l2.092-.509c9.076-1.935 18.132-1.77 27.359-1.748Z" data-color="1"/><path fill="#333" d="m726 608 2.777.375C781.173 615.627 831.267 637.199 872 671l1.67 1.363c14.067 11.5 27.231 24.231 38.33 38.637.874 1.086 1.75 2.171 2.629 3.254 37.125 46.008 61.282 106.636 61.574 166.125l.022 2.914c.228 40.342.228 40.342-3.225 58.707l-.57 3.144c-4.77 25.57-12.888 50.537-24.43 73.856l-1.106 2.293c-11.357 23.435-26.616 45.085-44.425 64.05a154.906 154.906 0 0 0-5.719 6.532c-9.107 10.454-19.941 19.49-30.995 27.803a599.879 599.879 0 0 0-5.263 4.025c-9.995 7.61-20.606 14.047-31.492 20.297l-1.967 1.144C789.78 1166.673 743.925 1179.017 701 1180l-2.654.062c-81.835 1.636-155.036-28.873-214.045-84.855-3.688-3.549-7.04-7.265-10.301-11.207l-2.621-2.96c-13.365-15.117-24.391-31.535-34.379-49.04l-1.217-2.102C420.036 1002.525 410.748 971.908 405 941l-.5-2.566c-5.538-29.598-5.128-63.888.5-93.434l.504-2.862C414.72 790.17 438.486 739.439 475 701a475.685 475.685 0 0 0 3.313-3.875c8.41-9.637 17.659-18.203 27.687-26.125l5.188-4.375c11.446-9.346 23.96-17.362 36.812-24.625l2.25-1.28C602.848 611.112 666.208 599.576 726 608ZM505 732c-3.946 4.466-7.512 9.173-11 14a2192.65 2192.65 0 0 1-2.563 3.441C481.825 762.468 473.827 776.33 467 791l-.996 2.138C456.727 813.376 450.141 834.948 447 857l-.533 3.73c-1.454 10.812-1.83 21.493-1.78 32.395l.007 2.582c.273 67.58 29.452 127.758 76.831 175.001 4.885 4.786 10.053 9.125 15.475 13.292l1.65 1.276c9.993 7.68 20.463 14.387 31.35 20.724l1.856 1.097c52.619 30.83 118.862 37.105 177.378 22.368 19.218-5.054 37.245-12.122 54.766-21.465l1.966-1.034C834.597 1091.83 861.227 1069.73 881 1044l1.276-1.65c7.68-9.993 14.387-20.463 20.724-31.35l1.097-1.856C919.419 982.994 927.903 952.862 932 923l.313-2.222c1.057-8.775.93-17.64.937-26.466l.002-2.632c-.017-13.759-.61-27.14-3.252-40.68l-.536-2.771C921.682 809.221 905.765 773.213 881 742l-2.266-2.887C866 723.476 851.432 708.735 835 697l-3.215-2.336C758.31 642.474 660.974 633.62 505 732Z" data-color="1"/><path fill="#EE2737" d="m322.375 360.563 2.515.023c6.642.178 12.193 1.264 18.11 4.414l2.379 1.25c13.026 7.759 18.397 21.758 24.558 34.875 7.114 15.066 7.114 15.066 14.754 29.868l1.006 1.942c3.086 5.564 7.097 8.997 13.097 10.997l2.749.44 3.201.54 3.443.526 3.633.605c4.057.672 8.118 1.317 12.18 1.957 5.566.884 11.13 1.777 16.693 2.682 2.318.373 4.638.73 6.958 1.088 14.624 2.31 28.003 6.014 37.72 17.918 3.188 4.525 5.517 9.206 7.629 14.313l1.46 3.074c2.348 6.529 2.037 10.353-.71 16.613-6.023 12.256-13.346 22.937-22.688 32.875l-1.567 1.68c-7.391 7.89-15.097 15.176-23.339 22.172-8.212 6.858-8.212 6.858-11.354 16.656-.252 9.647 1.784 18.936 3.573 28.367.321 1.727.642 3.454.96 5.182.466 2.514.932 5.03 1.4 7.544 6.682 35.976 6.682 35.976-2.313 50.36-7.095 9.62-16.05 15.686-27.422 19.476-18.864 1.38-32.075-4.73-48.307-13.548-4.933-2.66-9.91-5.238-14.88-7.827l-2.897-1.513A2118.707 2118.707 0 0 0 337 661l-2.333-1.207c-7.177-3.658-11.903-4.376-19.496-2.004-7.059 2.695-13.679 6.389-20.358 9.898-1.514.787-3.027 1.572-4.542 2.357-5.87 3.05-11.727 6.122-17.555 9.25l-2.058 1.105a1164.02 1164.02 0 0 0-3.803 2.054c-11.079 5.966-22.605 7.285-34.972 4.96C220.339 683.766 210.796 675.521 205 665c-7.442-15.576-3.151-32.134-.063-48.25 6.329-24.962 6.329-24.962 1.063-48.75-3.375-4.304-7.146-8.135-11-12l-4.887-4.965c-10.383-10.554-10.383-10.554-21.354-20.485-7.339-6.47-15.003-16.392-15.936-26.46-.543-19.067-.543-19.067 4.177-28.09l1.133-2.192c5.825-10.165 14.388-16.38 25.666-19.61 13.202-2.85 26.621-4.398 40.004-6.146 3.325-.437 6.648-.885 9.97-1.334l3.056-.388c8.305-1.133 15.503-2.413 20.857-9.314 2.296-3.524 3.899-7.264 5.502-11.142 3.598-8.346 7.577-16.399 11.861-24.413 2.04-3.816 4.061-7.62 5.889-11.544 5.855-12.51 13.991-22.673 27.257-27.55 4.773-1.525 9.192-1.87 14.18-1.805ZM322 406.001a39152.317 39152.317 0 0 0-11.273 21.974c-1.387 2.7-2.772 5.402-4.157 8.104l-1.396 2.721a929.598 929.598 0 0 0-6.943 13.816l-1.348 2.738a831.643 831.643 0 0 0-2.498 5.125c-5.257 10.691-12.855 19.12-24.35 23.223-7.316 2.329-14.658 3.446-22.25 4.49-1.346.192-2.692.384-4.038.578-4.227.606-8.456 1.2-12.685 1.793-4.929.69-9.857 1.386-14.784 2.095-1.964.28-3.929.55-5.894.82l-3.603.517-3.172.444c-2.826.441-2.826.441-5.609 2.561l1.744 1.718a5996.654 5996.654 0 0 1 16.33 16.148c2.792 2.772 5.588 5.54 8.393 8.3 2.713 2.668 5.415 5.347 8.111 8.033a610.852 610.852 0 0 0 3.083 3.04c11.754 11.515 18.968 23.217 19.429 40.039-.564 13.558-3.391 26.71-5.988 39.99a480.758 480.758 0 0 0-2.977 16.92l-.363 2.244c-.55 3.554-.888 6.971-.762 10.568 8.82-4.042 17.55-8.206 26.125-12.75l2.343-1.24c3.489-1.85 6.973-3.71 10.453-5.577 3.043-1.631 6.092-3.251 9.142-4.87l2.846-1.54c8.653-4.58 16.728-7.565 26.591-7.398l2.066-.035c9.164.052 17.284 3.52 25.274 7.727l2.444 1.26c2.555 1.321 5.104 2.653 7.654 3.986l5.017 2.596C376.334 632.048 387.668 638.022 399 644c1.13-3.392.865-4.993.303-8.49l-.536-3.41-.603-3.693-.602-3.81c-.531-3.35-1.067-6.7-1.607-10.048-.755-4.686-1.502-9.372-2.245-14.06-.396-2.493-.795-4.985-1.199-7.476-2.466-15.481-4.504-30.178 4.489-44.013 5.674-6.854 12.008-13.126 18.34-19.367l5.217-5.18a7603.85 7603.85 0 0 1 8.124-8.037c2.64-2.611 5.275-5.228 7.909-7.845l2.468-2.428 2.278-2.267 2.003-1.981c1.648-1.88 2.661-3.615 3.661-5.894a6425.696 6425.696 0 0 0-18.137-3.165c-11.844-2.054-23.69-3.911-35.626-5.366-14.573-1.907-27.424-6.5-36.728-18.372-5.479-7.482-9.325-15.496-13.259-23.848-1.048-2.199-2.1-4.396-3.151-6.593-.7-1.462-1.397-2.924-2.094-4.386-3.093-6.483-6.278-12.916-9.505-19.333l-1.401-2.79c-1.031-2.05-2.064-4.1-3.099-6.148h-2ZM1080.188 367.688c6.747 5.565 11.616 11.438 15.426 19.34l1.026 2.088c.736 1.5 1.47 3 2.2 4.502 3.318 6.814 6.676 13.61 10.034 20.405a1493.16 1493.16 0 0 1 2.644 5.39 1486.67 1486.67 0 0 0 3.9 7.912l1.172 2.42c3.654 7.312 7.478 11.513 15.41 14.255 2.747.652 5.5 1.095 8.293 1.5l2.364.366a999.7 999.7 0 0 0 4.97.753c2.585.385 5.167.782 7.749 1.182 7.02 1.082 14.041 2.138 21.082 3.078 16.206 2.174 30.003 5.85 40.937 18.836 7.636 10.869 8.614 22.415 7.606 35.286-2.762 14.596-14.68 25.73-25.512 35.015-5.415 4.717-10.514 9.751-15.608 14.81a607.692 607.692 0 0 1-3.412 3.35 710.75 710.75 0 0 0-4.988 4.918l-1.534 1.481c-4.043 4.068-6.92 8.02-6.965 13.934.226 2.857.585 5.658 1.019 8.491l.404 2.694c.439 2.739.917 5.467 1.408 8.197l.527 2.997a4466.4 4466.4 0 0 0 1.66 9.362c.555 3.136 1.109 6.27 1.661 9.406l1.032 5.82c2.918 16.46 4.356 31.45-5.614 45.985-6.303 7.701-16.08 14.773-26.078 16.54-2.683.173-5.317.276-8 .312l-2.098.088c-11.664.137-21.943-5.667-31.965-11.025A2534.714 2534.714 0 0 1 1087 670c-2.774-1.471-5.549-2.94-8.325-4.406-1.56-.825-3.119-1.653-4.675-2.486a405.291 405.291 0 0 0-6-3.109l-3.328-1.769c-8.097-2.714-14.876-1.75-22.445 1.97l-2.726 1.424-2.941 1.468c-5.566 2.795-11.078 5.697-16.599 8.58l-1.79.933a945.618 945.618 0 0 0-8.594 4.534c-14.822 7.837-27.955 13.603-44.701 9.236-6.113-1.909-10.958-4.285-15.875-8.375l-2.114-1.743c-7.323-6.647-12.452-15.815-13.123-25.76-.333-12.989 1.768-25.273 4.174-37.998a3517 3517 0 0 0 1.681-9.171c.344-1.883.693-3.764 1.048-5.644 2.826-14.107 2.826-14.107-.666-27.684-2.724-3.618-5.832-6.773-9-10-1.693-1.892-3.38-3.788-5.063-5.688-2.728-3.073-5.538-5.881-8.645-8.563-4.827-4.166-9.382-8.58-13.917-13.062l-2.485-2.396c-9.648-9.548-15.79-19.915-16.265-33.729.422-12.37 4.499-24.328 13.625-32.938 6.754-5.942 14.904-9.179 23.687-10.562l2.678-.463c7.001-1.165 14.03-2.102 21.064-3.04l2.878-.389c4.823-.65 9.647-1.284 14.475-1.889l5.456-.719 2.498-.297c6.86-.93 14.265-2.617 18.736-8.281 3.09-4.97 5.352-10.395 7.715-15.735 4.395-9.698 8.963-19.272 13.813-28.75l1.677-3.338c6.323-12.228 14.183-23.093 27.51-28.099 13.385-3.389 28.29-2.287 39.75 5.625ZM1055 405.001l-.85 1.718c-5.398 10.88-10.858 21.715-16.584 32.427a242.323 242.323 0 0 0-6.699 13.666c-6.762 14.924-14.506 25.217-30.166 31.29-4.394 1.462-8.813 2.133-13.388 2.774l-3.126.472c-3.015.454-6.031.898-9.048 1.339a4287.82 4287.82 0 0 0-20.295 3.039c-2.63.396-5.26.782-7.891 1.169-1.637.245-3.273.492-4.91.738l-2.282.328c-3.631.556-6.537 1.303-9.76 3.04l1.813 1.766a3661.08 3661.08 0 0 1 16.99 16.675c2.902 2.865 5.81 5.724 8.733 8.567a1120.84 1120.84 0 0 1 8.442 8.306 371.122 371.122 0 0 0 3.207 3.13c9.39 9.07 17.76 19.857 18.132 33.483.153 14.45-2.31 28.32-4.817 42.51-.647 3.737-1.288 7.474-1.926 11.212a1444.96 1444.96 0 0 1-1.202 6.911l-.546 3.14-.485 2.745c-.341 2.551-.403 4.984-.341 7.554 5.866-1.732 11.252-4.36 16.75-7l3.077-1.473c8.61-4.167 16.937-8.748 25.26-13.451 15.147-8.519 30.197-13.214 47.51-8.368 6.959 2.644 13.408 6.341 19.915 9.93 3.968 2.173 7.978 4.265 11.988 6.362 4.957 2.603 9.908 5.216 14.847 7.852l2.645 1.406c1.682.895 3.364 1.794 5.043 2.696l2.28 1.21 2.015 1.077c1.667.897 1.667.897 3.67.76a7740.791 7740.791 0 0 0-2.4-16.749c-.271-1.892-.542-3.785-.81-5.678-1.425-10.029-2.92-19.968-5.18-29.847-3.423-15.27-1.808-30.235 5.805-43.969 5.294-8.232 13.087-14.82 20.085-21.57 2.38-2.323 4.757-4.65 7.132-6.98 1.468-1.438 2.94-2.87 4.418-4.298A184.946 184.946 0 0 0 1179 496a4168.85 4168.85 0 0 0-15.188-2.75l-2.309-.414c-11.946-2.138-23.889-3.972-35.948-5.366-13.857-1.725-27.451-6.47-36.525-17.609-2.193-3.09-3.882-6.28-5.523-9.68l-2.109-4.29-1.156-2.363c-2.325-4.73-4.694-9.44-7.055-14.153l-3.066-6.132-1.552-3.103L1056 405h-1ZM712.625 366.625c8.228 5.997 13.524 13.601 18 22.625l1.498 2.942c5.438 10.752 10.648 21.621 15.846 32.492l1.613 3.327c.85 1.793 1.671 3.601 2.43 5.435 2.365 5.525 5.608 7.967 10.988 10.554 3.038.879 6.05 1.279 9.188 1.629l2.617.342c1.817.238 3.635.467 5.454.69 4.421.547 8.83 1.18 13.241 1.804l5.246.736 2.62.37c1.77.246 3.54.49 5.31.729 17.272 2.344 33.075 5.21 44.789 19.387C858.489 480.27 859.89 491.616 859 504c-2.628 11.955-10.545 22.42-19.734 30.264-4.026 3.493-7.862 7.139-11.653 10.884l-2.015 1.99a2816.037 2816.037 0 0 0-4.171 4.14 936.302 936.302 0 0 1-4.245 4.183 1095.092 1095.092 0 0 0-6.194 6.125l-1.9 1.847c-5.748 5.777-9.963 12.24-11.588 20.317-1.174 4.72-2.53 7.225-6.5 10.25l-2.188 1.75c-6.224 2.766-13.173 2.857-19.71 1.09-5.51-2.202-8.96-5.858-11.54-11.153-3.61-10.406-2.754-21.953 1.758-31.878 4.308-7.204 9.774-13.264 15.555-19.309l2.027-2.145a521.469 521.469 0 0 1 12.292-12.513c2.46-2.509 4.725-5.166 7.013-7.83 2.542-2.852 5.27-5.5 7.992-8.18 2.112-2.149 3.994-4.422 5.801-6.832-6.199-1.993-12.418-2.903-18.855-3.805l-7.014-1.02a4073.39 4073.39 0 0 0-10.966-1.565c-3.55-.504-7.098-1.02-10.645-1.54l-3.26-.448c-15.574-2.303-27.908-7.517-38.26-19.622-4.425-6.552-7.86-13.597-11.188-20.75a1041.434 1041.434 0 0 0-13.196-26.98c-2.372-4.7-4.606-9.403-6.616-14.27a54.56 54.56 0 0 0-5.46 8.473l-1.41 2.686-1.505 2.904-1.583 3.032a520.197 520.197 0 0 0-8.44 17.042l-1.698 3.591a780.575 780.575 0 0 0-3.187 6.87c-7.073 15.09-15.912 26.18-31.213 33.175-9.052 3.169-18.657 3.949-28.129 5.102-13.524 1.68-26.955 3.743-40.375 6.125-.221 2.161-.221 2.161 1.633 3.844l2.277 2.226 2.502 2.47c.875.852 1.75 1.706 2.65 2.585 9.649 9.45 9.649 9.45 13.403 13.86 2.697 3.152 5.565 6.032 8.566 8.898 23.802 22.744 23.802 22.744 24.261 39.65.078 8.145-.221 15.528-5.647 22.112-5.379 5.003-12.106 5.852-19.157 5.66-5.875-.72-9.951-3.256-13.676-7.805-2.86-4.13-4.589-8.554-6.246-13.277-4.213-8.668-11.452-15.354-18.261-22.008l-4.174-4.13c-3.39-3.351-6.792-6.692-10.194-10.032a1810.45 1810.45 0 0 1-5.754-5.675 984.747 984.747 0 0 0-5.393-5.299c-9.705-9.627-14.8-18.53-15.227-32.391.314-13.566 4.857-24.514 14.562-33.938 9.684-7.946 20.93-9.801 32.967-11.463 2.579-.356 5.154-.732 7.73-1.113 6.472-.952 12.948-1.866 19.428-2.764 2.491-.347 4.982-.699 7.472-1.056 2.16-.31 4.322-.606 6.486-.885 6.716-.962 10.95-2.6 15.831-7.528 2.953-4.43 5.094-9.184 7.336-14.003a5174.18 5174.18 0 0 1 3.191-6.723l1.688-3.555a1331.023 1331.023 0 0 1 8.162-16.836 940.59 940.59 0 0 0 2.6-5.344c6.593-13.322 14.703-24.5 29.148-29.601 12.638-2.896 26.284-2.051 37.461 4.746ZM826 808c4.325 2.915 6.884 5.957 8.688 10.875.971 6.607.254 12.173-2.688 18.125-6.559 8.468-14.749 15.868-22.33 23.406-2.224 2.21-4.444 4.424-6.663 6.638-4.708 4.696-9.42 9.389-14.132 14.081a21092.95 21092.95 0 0 0-16.413 16.357 6308.925 6308.925 0 0 1-6.532 6.5l-4.036 4.026-1.808 1.792c-3.643 3.643-7.083 7.412-10.437 11.323-2.887 3.286-5.985 6.358-9.087 9.44l-1.869 1.88c-2.964 2.958-5.96 5.813-9.16 8.515-5.31 4.628-10.22 9.65-15.165 14.66a2438.44 2438.44 0 0 1-5.263 5.31 7307.822 7307.822 0 0 0-14.945 15.083c-3.057 3.095-6.12 6.182-9.19 9.264-1.16 1.17-2.319 2.34-3.474 3.515a982.122 982.122 0 0 1-4.871 4.91l-2.787 2.816c-4.923 4.309-9.498 7.06-16.213 7.109l-3.148.102c-8.706-1.82-15.164-9.005-21.168-15.16l-2.393-2.413c-2.5-2.524-4.99-5.057-7.479-7.591-2.493-2.53-4.99-5.057-7.489-7.581-1.547-1.564-3.09-3.13-4.631-4.702a208.862 208.862 0 0 0-12.504-11.699c-2.486-2.168-4.827-4.465-7.16-6.796l-1.396-1.392c-.96-.96-1.918-1.92-2.875-2.881a1509.323 1509.323 0 0 0-4.337-4.33c-3.89-3.888-7.757-7.765-11.31-11.967-3.338-3.898-6.962-7.467-10.622-11.059l-1.904-1.873a1752.42 1752.42 0 0 0-7.902-7.729 1051.991 1051.991 0 0 1-5.819-5.71l-1.793-1.721c-4.783-4.753-8.122-9.74-9.261-16.467.009-7.2.642-12.207 5.566-17.656 4.826-4.473 8.592-6.304 15.188-6.438l3.23-.12c9.062 1.413 15.3 7.707 21.498 14.02l2.546 2.544c2.28 2.282 4.55 4.572 6.816 6.867 2.38 2.404 4.77 4.797 7.16 7.19 4.512 4.526 9.014 9.061 13.513 13.6a9062.41 9062.41 0 0 0 15.403 15.49A20185.076 20185.076 0 0 1 657 950c4.512-3.776 8.81-7.672 12.944-11.858l1.682-1.69c1.84-1.849 3.675-3.701 5.51-5.554l3.98-4.003c2.846-2.863 5.691-5.728 8.536-8.594 4.501-4.534 9.009-9.062 13.518-13.59l2.31-2.319 4.675-4.694c10.49-10.532 20.975-21.07 31.445-31.62a10972.19 10972.19 0 0 1 21.25-21.357c3.748-3.758 7.492-7.521 11.226-11.295 3.51-3.548 7.032-7.085 10.563-10.613a791.74 791.74 0 0 0 3.86-3.894C800.035 807.203 810.046 799.124 826 808Z" data-color="2"/></svg></g></svg>