<svg><defs><filter id="a" width="58" height="58" x="-6" y="-6" color-interpolation-filters="sRGB" filterUnits="userSpaceOnUse"><feComponentTransfer result="srcRGB"/><feGaussianBlur in="SourceAlpha" stdDeviation="2"/><feOffset dx="1" dy="1"/><feColorMatrix values="0 0 0 0 0 0 0 0 0 0 0 0 0 0 0 0 0 0 0.6 0"/><feMerge><feMergeNode/><feMergeNode in="SourceGraphic"/></feMerge><feComponentTransfer/></filter></defs><g filter="url(#a)"><svg xmlns="http://www.w3.org/2000/svg" aria-hidden="true" data-bbox="132.691 153.985 1102.154 1096.3" data-type="color" viewBox="132.691 153.985 1102.154 1096.3"><path fill="#333" d="M706 660c3.579 2.784 6.818 5.773 10 9l1.96 1.93c11.401 11.997 14.504 27.069 14.428 43.07a1971.65 1971.65 0 0 1 .02 15.51c-.006 4.091.007 8.182.017 12.273.017 8 .018 16.001.013 24.002-.004 6.502-.003 13.004.002 19.506l.003 2.808.004 5.647c.014 17.631.009 35.263-.003 52.894-.01 16.133.003 32.265.027 48.397.024 16.574.034 33.147.027 49.72-.003 9.301 0 18.603.017 27.904.014 7.913.015 15.826-.002 23.74-.009 4.037-.011 8.074.004 12.111.014 3.695.01 7.39-.01 11.086-.006 1.97.009 3.94.023 5.91-.09 10.675-.09 10.675-4.53 15.492-4.803 4.335-8.412 5.313-14.723 5.21-4.908-.454-7.974-2.642-11.09-6.273-2.888-3.878-3.312-5.493-3.317-10.246l-.011-3.435.003-3.805a5765.2 5765.2 0 0 1-.019-15.097c-.001-3.979-.01-7.957-.016-11.936-.012-6.899-.02-13.798-.026-20.698-.01-10.907-.031-21.815-.053-32.723l-.023-11.192-.005-2.825a110821.384 110821.384 0 0 1-.063-34.807 74192.31 74192.31 0 0 1-.061-47.178c-.018-16.144-.047-32.287-.085-48.43a13522.1 13522.1 0 0 1-.04-29.874 7246.31 7246.31 0 0 0-.036-20.486c-.012-3.939-.02-7.877-.013-11.815.005-3.61-.004-7.22-.023-10.83-.007-1.916.001-3.83.01-5.746-.072-9.421-1.152-18.373-7.409-25.814-7.263-6.347-13.026-8.48-22.707-8.316-7.323.703-13.21 4.115-18.293 9.316-2.906 4.75-5.122 9.482-5.13 15.113l-.011 2.55.003 2.8-.009 2.975c-.008 3.305-.01 6.61-.01 9.915l-.016 7.09c-.011 5.097-.02 10.195-.026 15.292-.01 8.06-.031 16.118-.053 24.177l-.023 8.272-.005 2.088a60729.368 60729.368 0 0 0-.063 25.71c-.026 11.618-.045 23.237-.061 34.855-.018 11.93-.047 23.86-.085 35.79a7082.3 7082.3 0 0 0-.04 20.092c-.001 6.3-.017 12.601-.044 18.901a1458.76 1458.76 0 0 0-.005 6.938c.003 3.158-.011 6.314-.03 9.471l.017 2.774c-.065 6.238-.868 11.298-5.128 16.158l-1.781 1.414-1.781 1.46c-3.893 2.637-8.187 2.747-12.719 2.165-5.291-1.76-8.95-4.24-12-9-1.225-3.676-1.145-7.066-1.142-10.893l-.01-2.435a2288.17 2288.17 0 0 1-.017-5.24c-.007-2.771-.023-5.542-.041-8.314-.052-7.88-.1-15.76-.116-23.64-.01-4.82-.04-9.642-.081-14.463a693.936 693.936 0 0 1-.015-5.493c.01-12.133-.197-22.676-8.933-32.053-6.414-5.729-13.119-6.907-21.477-6.805-7.984.847-13.557 5.059-18.695 10.98-4.792 7.664-4.903 14.972-4.884 23.766.005 2.259-.01 4.517-.028 6.775-.043 5.605-.054 11.21-.066 16.815-.012 4.749-.036 9.498-.075 14.247-.013 2.215-.01 4.43-.005 6.645-.009 1.369-.02 2.738-.03 4.106l-.006 3.595c-.51 4.583-1.803 8.619-4.914 12.15C544.21 945.38 539.749 945.73 532 945c-4.479-2.16-7.182-4.93-10-9-1.033-3.1-1.137-5.271-1.158-8.522l-.03-3.43-.023-3.712-.086-7.777c-.042-4.088-.079-8.176-.104-12.265-.026-3.944-.074-7.889-.122-11.833l-.01-3.675c-.144-9.999-1.525-17.643-8.498-25.06-5.88-5.157-12.762-7.109-20.465-7.007-7.125.8-13.58 4.129-18.504 9.281-4.538 6.882-6.148 12.196-6.142 20.411l-.01 2.244c-.008 1.605-.013 3.21-.017 4.814-.007 2.544-.023 5.087-.041 7.63-.052 7.232-.1 14.463-.116 21.695-.01 4.427-.04 8.853-.081 13.28a585.288 585.288 0 0 0-.015 5.048c.002 2.36-.02 4.719-.048 7.078l.02 2.087c-.103 5.367-1.625 8.366-4.55 12.713-4.655 4.315-8.393 5.368-14.586 5.277-5.591-.642-9.341-2.957-12.851-7.277-2.511-4.82-2.69-8.638-2.739-14.074a3437.61 3437.61 0 0 0-.072-4.213 673.712 673.712 0 0 1-.078-6.582c-.075-10.196-1.123-17.7-6.799-26.381-5.858-5.603-12.786-8.622-20.875-8.75-8.186.823-14.643 4.266-20.313 10.188-5.69 7.33-6.128 16.113-6.06 25.063l-.01 3.267c-.008 3.54.005 7.082.02 10.623 0 2.489 0 4.977-.002 7.466 0 5.215.01 10.43.029 15.645.022 6.623.023 13.245.016 19.868-.003 5.144.004 10.289.013 15.433.004 2.438.005 4.876.004 7.314-.002 18.416.686 36.572 3.912 54.735 1.142 7.011.573 12.503-3.609 18.398-4.71 4.374-9.742 5.229-16 5-5.05-1.347-8.522-3.612-11.719-7.684-11.21-20.266-7.442-55.05-7.449-77.304l-.01-7.082c-.006-4.913-.008-9.825-.007-14.737 0-6.261-.014-12.522-.031-18.783-.011-4.862-.013-9.724-.013-14.586 0-2.308-.005-4.616-.013-6.923-.073-23.879 1.448-44.823 18.402-63.249 13.243-12.473 28.396-17.245 46.207-17.061 9.143.277 17.655 1.755 25.633 6.409l.445-2.203c3.561-15.964 11.81-29.154 25.422-38.496 15.264-9.31 31.59-12.84 49.133-8.676 9.104 2.338 16.997 6.515 25 11.375l1.477-1.871C544.758 816.847 557.974 809.137 574 807c13.106-.686 23.846.743 36 6l-.008-1.7c-.067-13.699-.116-27.397-.147-41.096a7313.06 7313.06 0 0 0-.071-19.874c-.033-6.4-.05-12.8-.059-19.2-.005-2.434-.016-4.87-.032-7.304-.022-3.425-.025-6.85-.024-10.274l-.032-3.015c.07-16.094 5.946-30.87 17.205-42.432.715-.694 1.43-1.39 2.168-2.105l1.637-1.7c20.125-19.313 53.08-18.773 75.363-4.3Z" data-color="1"/><path fill="#333" d="m778.438 860.625 3.06.033c19.747.422 35.406 8.887 49.127 22.842 13.428 15.475 16.519 33.94 15.587 53.83-.759 9.581-4.665 17.783-8.762 26.35-8.072 18.493-9.234 40.688-9.74 60.588-1.777 67.639-18.324 141.692-68.827 190.189-33.842 31.463-75.623 35.886-119.834 35.812-4.006-.005-8.013 0-12.02.002-6.722.004-13.445 0-20.168-.01-7.717-.011-15.434-.008-23.15.003-6.685.01-13.37.01-20.054.006-3.966-.004-7.932-.004-11.899.003-41.752.06-41.752.06-59.445-4.523l-2.633-.664c-47.62-12.347-85.503-44.357-110.347-86.263-19.229-33.046-19.229-33.046-17.333-44.823 1.928-5.675 5.642-9.32 11-12 5.771-.584 11.498-.898 16.395 2.579 5.14 4.55 7.717 11.654 10.293 17.859 6.028 13.976 13.747 26.71 23.313 38.562l1.268 1.592c23.175 28.956 54.805 46.822 91.59 51.946 6.524.696 13.063.618 19.615.623l4.34.015c3.91.013 7.82.02 11.73.024l7.359.012c7.705.013 15.41.023 23.114.027a9763.1 9763.1 0 0 1 26.513.05c6.866.023 13.733.033 20.6.034 4.084.001 8.168.007 12.252.025 33.53.14 65.349-1.992 91.619-25.348l2.214-1.785c38.3-31.703 51.376-92.064 56.172-138.774.832-9.192 1.2-18.41 1.614-27.629 1.158-25.754 2.898-52.125 14-75.812 4.535-10.056 6.222-18.213 3.132-29.04-3.278-8.567-8.812-15.032-17.133-18.96-10.411-3.827-18.65-3.285-28.914.352-4.875 1.515-8.72 1.027-13.273-1.04-4.551-2.508-6.927-5.414-9.125-10.125-1.271-5.894-.418-11.45 2.836-16.59 7.995-8.65 22.884-10.134 33.914-9.972Z" data-color="1"/><path fill="#EE2737" d="m299 159 3.813.992c16.557 4.889 32.16 13.75 45.187 25.008l3.031 2.543C363.87 198.585 373.454 211.911 381 227l.98 1.94c14.699 29.646 16.484 65.665 6.477 97.044-6.7 19.766-17.125 35.83-31.457 51.016l-2.074 2.27c-21.757 22.963-54.582 35.601-85.805 36.89-33.141.874-64.843-9.517-90.121-31.16-.81-.675-1.62-1.35-2.453-2.047C150.595 360.592 136.013 328.812 133 295c-2.23-33.27 7.6-67.766 29.7-93.156 2.696-3.018 5.493-5.93 8.3-8.844l2.137-2.363C204.019 157.519 256.523 147.234 299 159Zm-109.125 63.25c-16.809 19.582-24.573 44.93-23.055 70.52 1.938 23.992 12.434 44.278 29.18 61.23l1.727 1.945c14.443 15.926 38.292 24.895 59.342 26.181 24.977.918 48.606-5.798 67.931-22.126l2.43-1.988C334.392 352.08 339.739 345.42 345 338l1.715-2.387c3.514-5.341 5.79-11.094 8.035-17.05l.891-2.349c8.365-23.174 6.208-49.402-3.87-71.61C346.466 233.457 339.486 224.816 331 216l-1.77-1.996c-14.197-15.563-38.077-24.43-58.71-25.383-32.644-.862-58.135 9.677-80.645 33.629ZM719 159l3.813.992c16.557 4.889 32.16 13.75 45.187 25.008l3.031 2.543C783.905 198.615 793.338 211.933 801 227l1.488 2.89c14.67 30.34 15.792 66.654 5.236 98.406-11.673 32.89-35.632 59.785-66.974 75.079-30.758 14.357-66.63 17.361-98.914 6.066-15.873-5.86-29.901-13.366-42.836-24.441-.81-.675-1.62-1.35-2.453-2.047-25.54-22.006-40.512-53.57-43.547-86.953-2.212-33.673 7.288-68.406 29.7-94.156 2.696-3.018 5.493-5.93 8.3-8.844l2.137-2.363C624.019 157.519 676.523 147.234 719 159Zm-108.473 62.656C592.612 242.553 585.59 267.836 587 295c1.963 21.64 11.786 41.667 27 57l2.563 2.688L619 357l1.55 1.535c17.664 16.604 41.905 24.063 65.785 23.817 25.943-.81 48.606-12.186 67.415-29.664 20.398-21.734 27.258-48.328 26.425-77.498-1.397-25.488-16.068-46.923-34.05-63.94-21.037-18.35-45.917-23.726-73.014-22.473-24.638 1.767-46.073 15.143-62.584 32.88ZM1139 159l3.813.992c16.557 4.889 32.16 13.75 45.187 25.008l3.031 2.543c12.886 11.083 22.271 24.396 29.969 39.457l1.453 2.75c2.878 5.828 4.824 11.929 6.735 18.125l.758 2.43c9.386 31.68 4.928 67.643-10.321 96.757-10.613 19.42-10.613 19.42-19.625 22.938-5.585.883-11.21 1.076-16.063-2.125-3.745-3.289-5.64-6.426-6.25-11.457-.273-6.24.693-10.312 4.313-15.418 6.192-9.288 10.65-18.351 14-29l1.035-3.25c6.489-24.626 1.63-51.293-10.95-73.063-14.315-22.357-35.884-38.423-61.854-44.553-25.606-5.076-51.551-.3-73.481 13.616-22.068 15.54-36.65 37.468-42.063 63.938-3.617 25.845 1.79 51.576 17.137 72.84A210.323 210.323 0 0 0 1031 348l2.309 2.922c13.91 16.624 37.083 27.244 58.296 29.832 19.09 1.384 38.426-.428 55.48-9.914 4.302-1.887 9.34-1.337 13.915-.84 4.479 2.16 7.182 4.93 10 9 1.722 5.167 1.656 10.106-.125 15.25-3.812 5.591-8.934 8.64-15.063 11.25l-2.08.893c-31.157 12.87-67.786 13.364-99.1.645-32.717-13.954-59.156-39.276-72.593-72.409-13.185-34.875-11.916-71.739 3.095-105.757 13.82-29.864 40.3-54.275 71.018-65.884 5.225-1.871 10.502-3.502 15.848-4.988l2.105-.586c20.664-5.408 44.458-4.075 64.895 1.586ZM719 552l3.813.992c16.557 4.889 32.16 13.75 45.187 25.008l3.031 2.543C783.905 591.615 793.338 604.933 801 620l1.488 2.89c14.674 30.347 15.881 66.836 5.135 98.558-7.04 19.584-17.877 36.019-32.436 50.865l-1.847 1.904c-4.947 4.877-9.22 7.436-16.278 8.22-4.6-.205-8.344-1.75-12.062-4.437-4.497-5.535-5.588-9.939-5-17 1.512-5.33 4.414-8.563 8.563-12.125C765.7 734.11 775.736 713.231 779 691c1.694-26.78-2.888-52.018-20.57-73.059-16.748-18.964-38.748-33.287-64.55-35.169-29.223-1.347-52.827 5.388-75.13 24.603-17.836 16.71-30.134 40.44-30.953 65.121-.313 19.61 3.118 37.26 13.078 54.317 3.277 5.863 4.443 10.543 3.125 17.187-1.346 4.203-3.561 6.643-7 9.438-5.034 2.511-10.538 2.286-16 1.562-10.174-4.333-14.956-18.12-19.083-27.715-3.743-9.33-6.41-19.355-7.917-29.285l-.336-2.121c-4.286-33.418 4.27-67.46 23.918-94.785 4.17-5.335 8.725-10.222 13.418-15.094l2.137-2.363C624.019 550.519 676.523 540.234 719 552ZM984.14 384.684c4.282 2.243 6.756 5.03 8.86 9.316 1.436 5.341 1.363 10.01-.864 15.098-2.13 3.566-5.035 6.183-8.137 8.902l-1.777 1.57a698.206 698.206 0 0 1-3.863 3.356c-2.958 2.6-5.847 5.272-8.735 7.95a1145.175 1145.175 0 0 1-14.097 12.847 1184.208 1184.208 0 0 0-8.528 7.777 1549.644 1549.644 0 0 1-13.437 12.188 1297.302 1297.302 0 0 0-8.563 7.812c-4.45 4.09-8.93 8.144-13.43 12.18a1247.927 1247.927 0 0 0-8.695 7.945c-3.237 2.978-6.486 5.935-9.812 8.813-4.132 3.582-8.132 7.3-12.142 11.017-4.098 3.794-8.235 7.54-12.393 11.268a1184.208 1184.208 0 0 0-8.528 7.777 1549.644 1549.644 0 0 1-13.437 12.188 1297.302 1297.302 0 0 0-8.563 7.812 1244.53 1244.53 0 0 1-13.43 12.168 292.61 292.61 0 0 0-5.577 5.196c-12.14 11.54-12.14 11.54-20.555 12.574-6.97-.887-10.928-3.42-15.274-8.719-2.653-3.918-2.69-8.165-2.164-12.719 2.606-8.227 9.056-13.06 15.368-18.573 2.255-1.97 4.474-3.98 6.695-5.99l2.402-2.151c2.905-2.618 5.783-5.263 8.66-7.91 3.237-2.978 6.487-5.935 9.813-8.813 4.131-3.582 8.132-7.301 12.142-11.017 4.097-3.794 8.234-7.541 12.393-11.268a1182.98 1182.98 0 0 0 8.527-7.778c4.454-4.091 8.937-8.148 13.438-12.187 2.868-2.589 5.717-5.198 8.562-7.813 4.454-4.091 8.937-8.148 13.438-12.187 2.868-2.589 5.717-5.198 8.562-7.813 4.454-4.091 8.937-8.148 13.438-12.187 2.868-2.589 5.717-5.198 8.562-7.813 4.454-4.091 8.937-8.148 13.438-12.187 2.868-2.589 5.717-5.199 8.562-7.813l4.545-4.165c1.388-1.273 2.773-2.548 4.159-3.823 18.303-16.703 18.303-16.703 30.437-12.828ZM389.075 382.909c3.771 2.137 6.721 5.2 9.8 8.216l2.209 2.119c6.098 5.879 12.094 11.865 18.03 17.907 3.159 3.2 6.344 6.292 9.757 9.22 5.895 5.078 11.251 10.707 16.707 16.246 3.714 3.748 7.415 7.447 11.422 10.883 5.86 5.024 11.165 10.622 16.578 16.117 3.714 3.748 7.415 7.447 11.422 10.883 5.86 5.024 11.165 10.622 16.578 16.117 3.714 3.748 7.415 7.447 11.422 10.883 5.86 5.024 11.165 10.622 16.578 16.117 3.667 3.7 7.315 7.361 11.274 10.75 5.202 4.465 10.042 9.304 14.896 14.14 1.638 1.629 3.287 3.246 4.936 4.864 1.051 1.045 2.102 2.09 3.152 3.137.49.477.98.954 1.483 1.446 4.035 4.061 5.963 7.75 5.994 13.484-.138 4.877-1.216 8.448-4.743 12.003-3.995 3.49-7.101 4.718-12.32 4.872l-2.484.113c-7.443-1.146-12.24-6.537-17.203-11.738-3.694-3.825-7.37-7.582-11.41-11.043-5.906-5.081-11.268-10.716-16.731-16.262-3.714-3.748-7.415-7.447-11.422-10.883-5.86-5.024-11.165-10.622-16.578-16.117-3.704-3.738-7.393-7.428-11.39-10.852-6.1-5.23-11.618-11.075-17.255-16.793-4.45-4.489-8.94-8.813-13.74-12.923-5.11-4.553-9.814-9.558-14.615-14.432-3.714-3.748-7.415-7.447-11.422-10.883-5.86-5.024-11.165-10.622-16.578-16.117-4.4-4.44-8.848-8.722-13.59-12.792-2.841-2.468-5.534-5.07-8.207-7.716l-1.574-1.512c-4.394-4.348-6.319-8.007-6.488-14.175.138-5.46 1.66-9.228 5.437-13.188 6.379-4.724 12.763-5.355 20.075-2.091ZM693.313 437.688c4.008 3.449 6.732 7.076 7.688 12.313.096 2.132.138 4.267.145 6.401l.02 3.935.002 4.246.01 4.371c.007 3.054.008 6.108.008 9.162 0 3.9.013 7.8.03 11.7.012 3.011.014 6.022.013 9.032a940.7 940.7 0 0 0 .014 4.312c.01 2.017.005 4.034 0 6.05l.005 3.47c-.457 6.13-1.858 10.931-6.248 15.32-5.234 3.703-10.809 3.83-17 3-5.002-2.455-8.498-5.997-11-11a164.84 164.84 0 0 1-.177-6.817l-.02-2.124c-.02-2.326-.03-4.65-.04-6.976l-.013-2.409c-.021-4.21-.035-8.42-.045-12.629-.01-4.34-.045-8.68-.085-13.02-.026-3.342-.034-6.686-.038-10.029-.005-1.6-.016-3.198-.035-4.797a481.536 481.536 0 0 1-.016-6.734l-.018-3.865c.768-5.67 2.933-9.369 7.487-12.975 6.477-3.508 12.76-3.275 19.313.063Z" data-color="2"/></svg></g></svg>