<svg><defs><filter id="a" width="68" height="64" x="-6" y="-6" color-interpolation-filters="sRGB" filterUnits="userSpaceOnUse"><feComponentTransfer result="srcRGB"/><feGaussianBlur in="SourceAlpha" stdDeviation="2"/><feOffset dx="1" dy="1"/><feColorMatrix values="0 0 0 0 0 0 0 0 0 0 0 0 0 0 0 0 0 0 0.6 0"/><feMerge><feMergeNode/><feMergeNode in="SourceGraphic"/></feMerge><feComponentTransfer/></filter></defs><g filter="url(#a)"><svg xmlns="http://www.w3.org/2000/svg" aria-hidden="true" data-bbox="94.895 161.618 1173.516 1080.907" data-type="color" viewBox="94.895 161.618 1173.516 1080.907"><path fill="#333" d="m1039 728.563 2.945-.021c6.514.057 11.319.722 16.118 5.521 1.937 2.938 1.937 2.938 2.756 4.931 3.76 8.983 10.536 14.991 17.366 21.68a3098.88 3098.88 0 0 1 4.066 4.044 2548.43 2548.43 0 0 0 8.745 8.654c4.629 4.561 9.238 9.142 13.845 13.725a18701.949 18701.949 0 0 0 31.905 31.623c9.749 9.648 19.492 19.3 29.215 28.974 4.57 4.546 9.152 9.078 13.744 13.602 2.867 2.83 5.724 5.67 8.579 8.514a794.974 794.974 0 0 0 3.955 3.901c17.067 16.722 29.582 37.045 29.875 61.675a776.1 776.1 0 0 1-.016 4.826l-.005 2.695c-.003 1.929-.01 3.858-.018 5.786-.013 3.102-.02 6.204-.025 9.305-.008 4.434-.019 8.867-.032 13.3a14781.477 14781.477 0 0 0-.05 37.884c-.008 27.947.39 55.88 1.032 83.819l3.254.577c1.436.26 2.872.52 4.309.782l2.134.376c11.369 2.083 21.909 5.62 28.791 15.374 6.957 12.23 6.974 27.276 6.91 40.965a1747.897 1747.897 0 0 1-.007 14.608c-.017 4.175-.007 8.35.01 12.525.012 3.257.008 6.515 0 9.773-.002 1.538 0 3.076.008 4.615.05 13.743-.756 27.918-10.382 38.592-9.335 8.957-19.461 10.962-31.963 10.96l-3.056.01c-3.383.012-6.767.016-10.15.02-2.425.006-4.85.012-7.275.02-7.278.019-14.557.03-21.836.038l-10.295.015a40044.295 40044.295 0 0 1-43.127.045l-2.23.001c-11.909.008-23.818.034-35.728.066-12.24.033-24.48.051-36.721.055-6.867.002-13.734.01-20.601.036-6.464.024-12.928.027-19.392.017-2.367 0-4.734.006-7.1.02-17.447.095-30.194-.487-43.3-13.182-16.173-17.384-10.526-49.688-10.253-71.308l.026-2.103c.056-4.194.134-8.387.238-12.58.047-1.939.082-3.877.116-5.815.371-12.507 2.065-24.24 11.436-33.249 8.846-7.165 20.836-10.85 32.184-10.253 1.71-14.694 3.304-30.597-5.75-43.313-4.241-5.09-9.084-9.625-13.875-14.188-13.486-14.195-15.702-30.112-15.756-48.92-.067-13.98-2.616-24.394-12.547-34.552a294.827 294.827 0 0 0-6.385-5.965l-4.55-4.23-2.179-2.018c-16.022-14.847-27.445-30.962-29.24-53.318-.416-15.533 3.355-29.813 13.47-41.809 11.184-11.633 25.401-16.43 41.312-16.938 17.118.256 32.294 6.053 45.191 17.293 1.938 1.643 3.884 3.114 5.953 4.58l1.906 1.353L1018 853l.007-1.745c.06-14.03.135-28.061.229-42.092.045-6.785.084-13.57.11-20.356.026-6.548.067-13.097.117-19.646.017-2.498.028-4.995.035-7.493.01-3.5.037-7 .07-10.5l-.005-3.125c.076-5.781.627-9.95 3.437-15.043 5.094-4.91 10.324-4.574 17-4.437Zm18 65.438c-.047 10.45-.082 20.899-.104 31.349-.01 4.853-.024 9.707-.047 14.56-.022 4.695-.034 9.389-.039 14.083-.003 1.78-.01 3.56-.021 5.341-.11 18.657.653 34.249 13.434 49.042l1.565 1.818c7.345 8.396 15.417 16.097 23.4 23.878 2.06 2.012 4.11 4.032 6.16 6.053l1.893 1.828c4.857 4.801 8.176 9.339 8.259 16.423-.17 5.683-1.73 9.396-5.5 13.625-4.594 4.071-8.986 5.195-15 5-14.595-2.872-27.853-21.773-37.847-31.864a5482.402 5482.402 0 0 0-8.92-8.979 288307.44 288307.44 0 0 1-4.632-4.656 13129.38 13129.38 0 0 1-20.702-20.85 6248.564 6248.564 0 0 0-14.058-14.146 2058.23 2058.23 0 0 1-7.403-7.46c-2.74-2.777-5.496-5.539-8.253-8.299l-2.424-2.472c-6.827-6.79-13.814-12.274-23.761-12.274-6.27 1.049-9.676 4.28-13.652 9.062-3.153 4.533-2.886 9.64-2.348 14.938 3.518 12.67 18.414 24.338 28.125 32.562 15.879 13.74 25.906 32.431 27.875 53.438.13 4.324.033 8.642-.049 12.966-.107 9.156 1.616 15.57 7.049 23.034a196.034 196.034 0 0 0 5.688 5.5c13.599 13.163 22.807 31.2 23.4 50.334.029 4.106.005 8.205-.11 12.31l-.068 2.863-.09 2.552c.094 2.957.094 2.957 2.18 7.44h143c.058-27.458.058-27.458.098-54.916.012-11.2.025-22.402.053-33.603.02-8.159.033-16.318.037-24.476.003-4.317.009-8.634.023-12.95.014-4.071.018-8.141.015-12.212 0-1.487.005-2.974.012-4.46.084-16.932-2.146-30.664-14.21-43.347a539980888.408 539980888.408 0 0 0-5.18-5.192 1772.955 1772.955 0 0 0-9.933-9.893l-2.392-2.365-2.127-2.092a145.068 145.068 0 0 1-5.52-6.116c-3.916-4.485-8.06-8.702-12.274-12.905l-2.451-2.457c-2.65-2.653-5.303-5.303-7.956-7.953l-5.545-5.548c-3.86-3.862-7.722-7.721-11.585-11.58-4.47-4.464-8.935-8.931-13.4-13.401-4.301-4.307-8.606-8.611-12.912-12.914l-5.49-5.493a6776.877 6776.877 0 0 0-7.641-7.634l-2.308-2.314-2.09-2.081-1.824-1.824c-1.208-1.386-1.208-1.386-2.4-1.274Zm-63 340v69h234v-69H994ZM295 747h49v101l30-11c17.686-5.895 36.21-11.706 54-3 2.934 1.755 5.451 3.729 8 6l1.762 1.379c11.68 10.054 16.22 27.918 17.398 42.621.435 10.279-2.222 21.003-7.16 30l-1.426 2.605c-5.382 9.108-12.624 16.083-20.637 22.895-15.301 13.205-26.42 30.071-27.937 50.5-.018 3.543.059 7.083.125 10.625.176 12.72-2.905 21.514-11.125 31.375-2.481 2.549-5.024 5.024-7.574 7.504-9.506 9.781-16.551 22.964-16.4 36.833.18 5.565.548 11.112.974 16.663l2.387.262c12.052 1.554 25.812 4.98 34.168 14.511 8.448 12.248 7.606 28.227 7.613 42.434l.01 4.718c.006 3.285.008 6.571.007 9.856 0 4.18.014 8.358.031 12.537.011 3.245.013 6.491.013 9.737 0 1.539.005 3.078.013 4.617.067 14.468-.297 28.865-10.062 40.496-8.839 8.391-19.503 9.981-31.185 9.98l-3.079.01c-3.409.011-6.818.015-10.227.019l-7.328.02c-7.333.02-14.667.03-22 .039l-10.375.015a40661.705 40661.705 0 0 1-43.46.044l-2.247.002c-12 .008-23.999.033-35.998.066-12.334.033-24.669.05-37.003.054-6.92.002-13.838.01-20.757.036-6.514.025-13.028.028-19.542.018-2.384 0-4.768.006-7.153.02-29.673.16-29.673.16-40.892-9.514-8.778-8.973-11.323-19.341-11.621-31.602l-.1-3.03A787.498 787.498 0 0 1 95 1189l-.05-2.805c-.103-7.067-.046-14.128.05-21.195l.026-2.164c.06-4.873.139-9.744.238-14.616.032-1.625.06-3.25.082-4.874.198-13.515.708-26.878 10.44-37.248 9.856-9.27 22.934-12.228 36.214-12.098l-.011-2.613c-.089-21.035-.155-42.07-.196-63.106-.02-10.172-.049-20.345-.095-30.518-.04-8.872-.065-17.744-.074-26.616-.006-4.693-.018-9.385-.047-14.078-.027-4.428-.035-8.856-.03-13.284a542.575 542.575 0 0 0-.024-4.843c-.225-24.637 9.094-44.292 26.17-61.938a859.715 859.715 0 0 1 8.725-8.68c1.27-1.262 2.54-2.524 3.808-3.788 3.307-3.29 6.622-6.57 9.94-9.849 5.32-5.26 10.626-10.534 15.933-15.808 1.837-1.824 3.68-3.644 5.521-5.463 5.143-5.091 10.204-10.194 14.9-15.708 2.4-2.768 4.995-5.327 7.605-7.895l1.668-1.657c2.315-2.299 4.635-4.59 6.955-6.884 5.672-5.61 11.288-11.18 16.463-17.26 4.492-5.05 9.434-9.704 14.246-14.449 5.152-5.085 10.246-10.168 14.91-15.711 2.103-2.385 4.385-4.604 6.633-6.852Zm5.979 51.894-2.626 2.617-2.902 2.909-3.04 3.035c-2.764 2.758-5.523 5.52-8.282 8.282l-8.671 8.67c-4.863 4.86-9.723 9.723-14.583 14.587a24382.83 24382.83 0 0 1-16.824 16.823c-4.82 4.815-9.637 9.632-14.454 14.45-2.874 2.877-5.75 5.753-8.627 8.627-2.713 2.71-5.423 5.421-8.13 8.135-.99.991-1.98 1.981-2.972 2.97-4.955 4.946-9.808 9.919-14.346 15.252-1.653 1.9-3.391 3.695-5.147 5.499-12.641 14.46-11.538 36.132-11.489 54.058v4.262c0 3.81.006 7.618.013 11.427.006 3.999.006 7.997.008 11.996.003 7.55.01 15.1.021 22.65.011 8.605.017 17.21.022 25.815.01 17.68.028 35.361.05 53.042 18.61.047 37.22.082 55.831.104 8.64.01 17.281.024 25.922.047 7.529.02 15.058.033 22.587.037 3.989.003 7.977.009 11.966.023 3.75.014 7.501.018 11.252.015 1.38 0 2.76.005 4.139.012a746.3 746.3 0 0 0 5.634.003l3.19.005c2.654.001 2.654.001 4.479-2.246.307-3.058.307-3.058.273-6.668l.063-4.15c.022-2.163.039-4.326.045-6.488.104-22.277 7.12-40.547 22.619-56.694a152.596 152.596 0 0 1 4.375-3.688c4.937-4.12 8.144-9.59 8.975-16.023.034-2.819-.068-5.599-.225-8.414-.683-27.255 9.794-48.128 28.032-67.957 3.715-3.866 7.694-7.446 11.653-11.059 8.329-7.651 16.14-16.212 16.69-28.047-.207-4.614-1.399-7.292-4.5-10.812-3.624-3.27-6.153-4.812-11.063-5.313-17.188 1.365-30.476 17.645-41.824 29.166l-2.502 2.526a6614.28 6614.28 0 0 0-5.32 5.377 5212.14 5212.14 0 0 1-8.44 8.512 2840037.023 2840037.023 0 0 0-4.381 4.409 9647.098 9647.098 0 0 0-19.597 19.772 4386.556 4386.556 0 0 1-13.296 13.404c-2.342 2.35-4.677 4.707-7.004 7.072a1512.995 1512.995 0 0 1-7.815 7.87l-2.292 2.35c-5.048 5.01-10.529 9.62-17.935 9.972-6.359-.336-10.476-2.891-14.781-7.554-3.318-4.86-4.429-8.647-3.75-14.563 2.842-7.374 7.093-12.953 12.563-18.563l2.13-2.228c4.927-5.052 10.014-9.306 15.768-13.393C293.535 912.894 301.47 900.071 305 887l.506-1.83c1.594-6.339 1.743-12.339 1.65-18.85l-.024-3.401c-.031-3.64-.08-7.28-.132-10.919l-.05-3.715a5033.61 5033.61 0 0 0-.45-26.41l-.145-7.883c-.116-6.33-.234-12.661-.355-18.992-2.018 0-3.715 2.589-5.021 3.894ZM135 1134v69h235v-69H135Z" data-color="1"/><path fill="#EE2737" d="m476.262 271.866 2.121-.007c2.34-.007 4.68-.006 7.019-.006l5.09-.011c4.66-.01 9.318-.014 13.976-.016 5.026-.004 10.052-.014 15.078-.023 12.134-.02 24.268-.03 36.401-.038l17.149-.015a110988.22 110988.22 0 0 1 75.51-.046c19.85-.009 39.7-.034 59.55-.067 20.386-.033 40.772-.05 61.158-.054 11.443-.002 22.887-.01 34.33-.036 9.744-.022 19.488-.03 29.232-.02a3092 3092 0 0 0 14.909-.017c4.554-.018 9.108-.017 13.663-.001 1.642.002 3.285-.002 4.928-.014 18.542-.126 30.432 5.251 43.615 18.14 2.667 2.648 5.313 5.316 7.958 7.986l4.279 4.285c2.975 2.98 5.946 5.965 8.913 8.954 3.785 3.814 7.58 7.619 11.377 11.421 3.647 3.652 7.29 7.309 10.931 10.965l2.079 2.085c12.235 12.279 12.235 12.279 16.069 16.841 3.394 3.997 7.26 7.456 11.13 10.979 6.762 6.168 13.23 12.623 19.71 19.084l1.985 1.975c3.451 3.437 6.9 6.876 10.346 10.318 3.538 3.533 7.085 7.056 10.634 10.577 2.754 2.735 5.501 5.477 8.247 8.22 1.305 1.303 2.612 2.602 3.923 3.9 1.83 1.812 3.649 3.634 5.467 5.458l1.612 1.584c8.354 8.446 12.66 17.848 12.736 29.778l-.026 3.022.007 3.278c.005 3.607-.011 7.213-.028 10.82 0 2.592 0 5.184.002 7.777.001 5.572-.008 11.144-.025 16.716-.024 8.057-.032 16.113-.036 24.17-.007 13.072-.026 26.144-.055 39.217-.027 12.695-.049 25.39-.061 38.084l-.003 2.373-.011 11.788c-.031 32.57-.085 65.14-.151 97.71h-38l.013-9.082a108991.164 108991.164 0 0 0 .098-95.51c.009-11.618.025-23.235.043-34.851.019-11.927.03-23.853.034-35.779.002-6.696.009-13.392.023-20.088.014-6.306.018-12.61.015-18.916 0-2.311.005-4.623.012-6.934.01-3.163.008-6.325.002-9.488l.018-2.753c-.079-17.03-6.37-27.802-18.258-39.599-2.398-2.281-4.828-4.526-7.258-6.773-8.351-7.78-16.46-15.79-24.518-23.873-2.313-2.317-4.63-4.63-6.949-6.942-1.5-1.5-2.999-3-4.498-4.502l-2.058-2.052c-3.16-3.175-6.22-6.389-9.143-9.784-3.978-4.605-8.257-8.88-12.572-13.168l-2.526-2.521c-2.636-2.63-5.276-5.258-7.916-7.885l-5.396-5.383A15949.6 15949.6 0 0 0 905 340c-.833 16.696-1.193 33.282-1 50l.022 3.7c.028 3.58.091 7.158.165 10.738l.017 3.301c.154 6.083.154 6.083 3.042 11.312 8.525 6.034 15.722 8.03 26.129 7.824 6.532-.022 12.221.352 17.437 4.602 4.44 4.674 6.14 9.43 6.215 15.82-.34 5.204-1.495 8.706-5.027 12.703-10.666 8.02-25.583 7.927-38.25 6.313-14.97-2.515-28.05-9.535-37.75-21.313-7.029-10.003-12.055-22.207-12.158-34.587l-.03-2.698-.017-2.921-.03-3.106c-.032-3.381-.057-6.763-.082-10.145a16557.558 16557.558 0 0 1-.216-25.56c-.05-6.301-.105-12.602-.16-18.903-.108-12.36-.21-24.72-.307-37.08a202598.716 202598.716 0 0 0-166.986.263l-3.546.006c-18.947.036-37.894.06-56.842.082-19.44.021-38.879.054-58.318.098-11.997.026-23.994.044-35.99.05-8.225.006-16.45.022-24.675.047-4.747.014-9.493.023-14.24.02-4.346-.004-8.693.006-13.04.027-1.571.006-3.142.006-4.713 0-13.612-.115-13.612-.115-25.588 5.657-3.988 5.319-4.356 11.171-4.304 17.63l-.006 2.324c-.004 2.566.006 5.133.016 7.7 0 1.86 0 3.719-.002 5.579-.002 4.042.003 8.085.012 12.127.016 6.577.017 13.154.018 19.732.001 9.549.01 19.098.021 28.647.018 15.091.014 30.183.006 45.275l-.006 15.49-.002 3.91c-.006 14.686-.009 29.372-.009 44.058v2.033c0 21.765.017 43.53.042 65.294.025 23.019.025 46.037-.002 69.055-.015 13.782-.008 27.564.027 41.346.023 9.443.02 18.885-.004 28.328-.012 5.45-.014 10.898.016 16.347.026 4.99.02 9.978-.01 14.967-.006 1.804 0 3.608.02 5.412.163 16.301.163 16.301-6.053 22.83L447 786l-1.87 1.855c-3.631 3.525-7.005 5.493-12.13 6.145-7.53-2.353-13.192-9.355-17-16-.376-2.72-.538-5.025-.5-7.734l-.017-2.313c-.014-2.56 0-5.12.016-7.682a2679.207 2679.207 0 0 1-.007-20.847c.01-5.495-.001-10.99-.01-16.485-.014-10.77-.007-21.539.008-32.308.017-12.547.014-25.094.01-37.641-.006-23.076.01-46.152.036-69.228.023-21.04.028-42.08.018-63.12l-.008-16.147v-2.008a50618.022 50618.022 0 0 1 .016-64.138c.004-8.737.003-17.474-.002-26.211-.005-10.663.001-21.325.021-31.988.01-5.436.015-10.872.007-16.308-.007-4.986 0-9.972.018-14.959.004-1.794.003-3.588-.004-5.382-.07-20.834 2.041-41.386 16.98-57.173 11.504-10.86 28.333-14.44 43.68-14.462Z" data-color="2"/><path fill="#EE2737" d="m382.662 161.86 4.992-.009c4.545-.008 9.09-.01 13.634-.01 4.912-.002 9.824-.01 14.736-.017 10.725-.013 21.45-.02 32.175-.024l20.102-.011c18.566-.012 37.131-.023 55.697-.026h3.596l3.603-.001 7.23-.002h3.622c19.38-.004 38.762-.022 58.143-.045 19.915-.024 39.831-.036 59.747-.037 11.175-.001 22.35-.007 33.525-.025 9.512-.016 19.023-.02 28.535-.013 4.85.004 9.7.003 14.55-.01 4.445-.013 8.89-.012 13.335 0a700.65 700.65 0 0 0 4.808-.01c15.723-.08 28.867 2.005 40.564 13.324 3.55 3.55 6.935 7.226 10.182 11.056 2.945 3.472 6.235 6.475 9.625 9.5 13.23 11.852 13.23 11.852 14.238 19.903.03 6.62-.826 9.897-5.363 14.847-4.331 2.58-7.951 2.757-12.938 2.75l-3.89.028c-5.69-.194-10.46-.469-14.786-4.555a144.015 144.015 0 0 1-4.265-6.363c-7.267-10.976-20.769-16.712-33.172-19.567-5.92-1.113-11.822-1.76-17.832-2.099l-2.243-.127c-7.56-.401-15.113-.446-22.684-.419l-4.551.003c-4.115.004-8.23.013-12.346.024a35417.456 35417.456 0 0 0-42.531.077l-18.222.039c-16.839.034-33.678.07-50.517.113l-3.256.008-3.264.009-6.546.016-3.28.009c-17.568.044-35.136.075-52.704.1-18.065.027-36.13.064-54.195.112-10.132.027-20.264.05-30.396.06-8.618.008-17.237.027-25.855.059-4.394.016-8.788.027-13.182.025-4.026-.002-8.052.01-12.077.034a597.8 597.8 0 0 1-4.358.002c-12.885-.26-12.885-.26-24.488 4.652-5.455 5.811-5.658 13.834-5.621 21.35l-.013 2.52c-.01 2.78-.007 5.56-.004 8.34a6389.79 6389.79 0 0 0-.038 22.65c-.004 5.971-.02 11.941-.033 17.911-.022 10.342-.037 20.684-.047 31.026-.01 10.845-.026 21.69-.046 32.535l-.003 2.044-.02 10.278c-.045 24.26-.082 48.52-.113 72.779-.03 23.566-.064 47.132-.104 70.698l-.004 2.202a1087743.626 1087743.626 0 0 1-.112 66.479l-.004 2.07c-.075 45.627-.137 91.253-.198 136.878h-38c-.05-46.284-.099-92.568-.127-138.853l-.001-2.078a490378.768 490378.768 0 0 1-.037-66.63v-2.205c-.013-23.55-.036-47.1-.064-70.65a79019.92 79019.92 0 0 1-.055-82.906l-.001-2.042c-.004-10.823-.017-21.647-.035-32.47-.018-10.896-.024-21.791-.02-32.687a5797.09 5797.09 0 0 0-.017-17.693c-.015-5.408-.016-10.817-.005-16.225 0-1.948-.003-3.896-.012-5.844-.09-19.377 1.01-39.425 14.374-54.717l1.446-1.796c10.199-11.583 26.322-14.803 40.984-15.99 6.74-.404 13.483-.358 20.232-.354ZM444.406 977.613c4.074 2.028 5.992 5.14 7.867 9.094 1.85 5.838 1.865 11.816 1.824 17.873l-.004 2.517c-.004 1.798-.01 3.596-.018 5.394-.013 2.877-.02 5.755-.024 8.633-.014 7.168-.037 14.335-.062 21.503-.135 30.39-.135 30.39.323 60.775l.068 3.592c.237 7.235.714 13.759 5.745 19.38 8.788 4.968 19.328 3.884 29.094 3.82a4858.99 4858.99 0 0 0 19.764-.064c5.21-.024 10.421-.035 15.632-.048 9.026-.022 18.053-.052 27.079-.085 14.269-.051 28.538-.081 42.807-.107l14.652-.028 3.699-.007c13.885-.026 27.77-.056 41.657-.089l3.845-.009c20.572-.049 41.143-.116 61.715-.19 21.128-.073 42.256-.12 63.385-.145 13.028-.015 26.056-.053 39.085-.119a5313.2 5313.2 0 0 1 26.782-.059c5.15 0 10.3-.01 15.45-.052 4.717-.038 9.434-.043 14.152-.023 1.703.002 3.406-.009 5.11-.032 10.432-.136 17.602 1.022 25.967 7.863l1.847 1.283c4.175 3.03 6.745 6.799 8.153 11.717.224 4.201-.588 7.791-1.938 11.75-4.377 4.775-10.75 7.245-17.062 8.25-2.419.091-4.84.127-7.26.128l-2.195.006c-2.434.004-4.867.002-7.3 0l-5.28.006c-4.842.006-9.683.006-14.525.005-5.22 0-10.44.005-15.659.01-10.23.008-20.46.011-30.69.012-8.319 0-16.637.002-24.954.005-23.584.01-47.168.014-70.752.013h-7.714c-20.625 0-41.25.01-61.875.023-21.178.015-42.357.021-63.536.02-11.89 0-23.78.003-35.669.014-10.127.009-20.254.011-30.38.004a6693.9 6693.9 0 0 0-15.493.006c-4.735.007-9.469.006-14.204-.003-1.706-.001-3.412 0-5.118.006-21.43.066-41.77-2.378-58.037-17.685-12.408-13.518-14.503-31.159-14.52-48.718l-.015-3.625c-.012-3.26-.02-6.52-.024-9.781-.003-2.042-.007-4.084-.012-6.125-.014-6.403-.023-12.805-.027-19.208-.005-7.365-.022-14.73-.051-22.095-.022-5.712-.032-11.424-.033-17.137-.001-3.403-.007-6.807-.025-10.21-.017-3.798-.015-7.596-.009-11.394l-.028-3.377c.036-6.688.129-14.267 4.837-19.52 6.626-5.678 15.66-5.88 23.954-3.767Z" data-color="2"/><path fill="#EE2737" d="m567.62 983.866 2.843-.007c3.128-.006 6.256-.005 9.384-.005l6.748-.01c6.1-.009 12.199-.01 18.298-.012 3.813 0 7.627-.002 11.44-.005 12.624-.009 25.25-.013 37.874-.013h4.121c11.024 0 22.048-.009 33.072-.023 11.338-.014 22.675-.02 34.013-.02 6.358 0 12.716-.003 19.074-.013 5.98-.01 11.962-.01 17.943-.003 2.19.001 4.38-.001 6.57-.007 28.59-.074 28.59-.074 36 6.252 4.99 5.53 5.298 9.821 5.211 17.054-.388 5.421-2.228 8.006-6.086 11.696-7.797 5.614-16.513 5.4-25.782 5.383l-2.856.007c-3.142.007-6.284.006-9.425.005l-6.778.01c-6.126.009-12.252.011-18.378.012-3.83 0-7.66.003-11.49.005-12.68.01-25.36.014-38.04.013h-4.139c-11.073 0-22.146.01-33.218.023-11.388.015-22.775.021-34.162.02-6.386 0-12.772.003-19.158.014-6.007.01-12.015.01-18.022.002-2.2 0-4.4.002-6.6.008-28.41.073-28.41.073-36.077-6.252l-1.75-1.313c-3.492-4.715-3.932-11.014-3.25-16.687 1.366-6.196 3.742-9.495 9-13 7.451-3.24 15.63-3.148 23.62-3.134ZM562.741 472.866l2.956-.007c3.265-.006 6.531-.005 9.797-.005l7.027-.01c6.362-.009 12.723-.01 19.085-.012 4.641 0 9.282-.003 13.924-.006 12.483-.009 24.965-.012 37.448-.012h4.297c11.494 0 22.99-.009 34.484-.023 11.811-.014 23.622-.021 35.433-.02 6.628 0 13.256-.003 19.884-.013 6.233-.01 12.466-.01 18.699-.003 2.286.001 4.573-.001 6.86-.007 3.123-.008 6.246-.003 9.37.004l2.735-.015c8.057.044 14.744 1.11 21.26 6.263 4.356 4.957 4.287 9.697 4.21 16.054-.383 5.362-2.23 7.967-5.96 11.696-6.445 4.461-12.665 4.542-20.256 4.51l-3.006.012c-3.316.01-6.631.006-9.947.002l-7.141.016c-5.79.012-11.58.014-17.37.012-4.708-.002-9.416 0-14.124.004l-2.033.002-4.089.004c-12.774.01-25.548.008-38.322.002-11.675-.005-23.35.006-35.025.025-12 .02-24 .028-36 .024-6.732-.002-13.465 0-20.197.015-6.331.013-12.663.01-18.995-.002-2.321-.003-4.643 0-6.964.008-3.174.01-6.347.003-9.52-.01l-2.772.022c-6.628-.055-13.281-.892-18.645-5.08l-1.344-1.754-1.406-1.746c-3.013-5.003-2.838-11.482-1.598-17.039 1.818-5.496 4.518-7.947 9.441-10.965 5.698-2.244 11.783-1.956 17.804-1.946ZM563.779 600.866l2.932-.007c3.232-.006 6.465-.005 9.697-.005l6.964-.01c6.3-.009 12.6-.01 18.899-.012 3.937 0 7.873-.002 11.81-.005a53470.114 53470.114 0 0 1 41.21-.013h2.129c11.384 0 22.769-.009 34.153-.023 11.701-.014 23.403-.021 35.104-.02 6.565 0 13.13-.003 19.694-.013 6.174-.01 12.348-.01 18.522-.003 2.264.001 4.527-.001 6.79-.007 3.095-.008 6.19-.003 9.285.004l2.7-.015c8.314.045 15.69.885 22.332 6.263 4.357 4.957 4.284 9.695 4.215 16.05-.37 5.071-1.971 7.802-5.652 11.2-7.098 4.847-13.933 4.898-22.304 4.883l-2.956.007c-3.265.007-6.53.006-9.796.005l-7.028.01c-6.362.009-12.723.011-19.085.012-4.64 0-9.282.004-13.923.007-12.483.008-24.966.012-37.449.011h-4.296c-11.495 0-22.99.01-34.485.023-11.81.015-23.622.021-35.433.02-6.628 0-13.256.003-19.883.014-6.233.01-12.467.01-18.7.002-2.286 0-4.573.002-6.859.008-3.124.007-6.247.003-9.37-.005l-2.736.016c-7.869-.043-15.084-.93-21.26-6.263-4.131-5.543-4.915-11.243-4-18 1.205-4.549 3.292-8.055 7-11 6.734-3.458 14.394-3.147 21.779-3.134ZM557.88 856.74l2.35-.012c2.588-.01 5.176-.006 7.765-.002l5.58-.015c5.045-.014 10.09-.014 15.136-.012 4.214.001 8.429-.004 12.644-.008 9.944-.012 19.89-.012 29.834-.006 10.253.006 20.506-.006 30.76-.028 8.808-.017 17.617-.023 26.425-.02 5.259.002 10.517 0 15.775-.015 4.947-.012 9.893-.01 14.839.003 1.812.002 3.625 0 5.437-.009 2.48-.01 4.96-.002 7.44.01l2.157-.022c5.864.063 11.446 1.283 16.036 5.115l1.379 1.782 1.433 1.78c3.242 4.936 2.534 11.066 2.13 16.72-1.708 5.215-4.55 7.858-9 11-4.655 1.933-8.905 2.287-13.882 2.26l-2.35.012c-2.588.01-5.176.006-7.764.002l-5.58.016c-5.045.013-10.09.014-15.136.011-4.215 0-8.43.004-12.644.009-9.945.011-19.89.011-29.835.005-10.253-.006-20.506.007-30.759.028-8.809.018-17.617.024-26.426.02-5.258-.002-10.517.001-15.775.015-4.946.013-9.892.01-14.838-.002-1.813-.003-3.625 0-5.438.008-2.48.01-4.959.003-7.439-.01l-2.157.022c-5.503-.059-11.219-1.04-15.512-4.707-4.67-5.231-5.907-10.64-5.712-17.451.57-5.182 2.417-8.41 6.059-12.05 5.514-3.785 10.501-4.484 17.068-4.449ZM558.963 728.74l2.34-.012c2.571-.01 5.143-.006 7.714-.002l5.55-.015c5.015-.014 10.03-.014 15.044-.012 4.19.001 8.38-.004 12.57-.008 9.885-.012 19.771-.012 29.657-.006a11127.5 11127.5 0 0 0 30.573-.028c8.758-.017 17.516-.023 26.274-.02 5.227.002 10.454 0 15.681-.015 4.916-.012 9.831-.01 14.747.003 1.801.002 3.602 0 5.403-.009 2.465-.01 4.93-.002 7.394.01l2.143-.022c5.85.063 11.428 1.293 16.005 5.115l1.38 1.782c.472.588.946 1.175 1.433 1.78 3.241 4.936 2.534 11.066 2.129 16.72-1.707 5.215-4.55 7.858-9 11-4.641 1.926-8.875 2.287-13.836 2.26l-2.335.012c-2.573.01-5.145.006-7.717.002l-5.545.016c-5.015.013-10.03.014-15.044.011-4.19 0-8.38.004-12.569.009-9.887.011-19.775.011-29.662.005-10.19-.006-20.38.007-30.571.028-8.757.018-17.514.024-26.271.02-5.227-.002-10.453.001-15.68.015-4.917.013-9.835.01-14.752-.002-1.8-.003-3.601 0-5.402.008-20.48.087-20.48.087-26.177-4.695-4.702-5.131-5.878-10.717-5.685-17.451.566-5.15 2.419-8.392 5.996-12.05 5.732-3.86 11.443-4.485 18.213-4.449Z" data-color="2"/></svg></g></svg>