<svg><defs><filter id="a" width="68" height="64" x="-6" y="-6" color-interpolation-filters="sRGB" filterUnits="userSpaceOnUse"><feComponentTransfer result="srcRGB"/><feGaussianBlur in="SourceAlpha" stdDeviation="2"/><feOffset dx="1" dy="1"/><feColorMatrix values="0 0 0 0 0 0 0 0 0 0 0 0 0 0 0 0 0 0 0.6 0"/><feMerge><feMergeNode/><feMergeNode in="SourceGraphic"/></feMerge><feComponentTransfer/></filter></defs><g filter="url(#a)"><svg xmlns="http://www.w3.org/2000/svg" aria-hidden="true" data-bbox="63.475 129.691 1237.743 1144.555" data-type="color" viewBox="63.475 129.691 1237.743 1144.555"><path fill="#333" d="M711.196 184.637A581.76 581.76 0 0 1 719 192l2.274 2.148c36.005 34.867 58.014 87.737 59.062 137.559.04 3.035.047 6.07.04 9.105l-.003 2.427c-.179 49.88-17.644 97.96-50.373 135.76l-2.137 2.473C717.064 493.706 705.62 504.92 692 514l3.66.007a72697.08 72697.08 0 0 1 98.91.262c11.387.035 22.774.06 34.16.08 11.7.023 23.399.056 35.098.1 6.565.023 13.13.042 19.695.048 6.188.006 12.376.026 18.563.057 2.263.009 4.526.012 6.788.01 28.476-.015 52.432 5.8 73.126 26.436l2.18 2.109c13.39 13.875 20.49 33.446 28.478 50.7 4.262 9.196 8.614 18.35 12.967 27.503l2.434 5.124a4660.72 4660.72 0 0 0 16.03 33.345c3.764 7.784 7.423 15.613 11.036 23.469 6.742 14.64 13.839 29.105 20.925 43.581a293630587.419 293630587.419 0 0 0 2.52 5.148c4.447 9.088 8.811 18.214 13.157 27.35 2.393 5.02 4.803 10.032 7.21 15.046l3.036 6.32 1.52 3.165a21066.178 21066.178 0 0 1 7.382 15.39l1.484 3.095a4129.55 4129.55 0 0 0 8.087 16.76 4399.26 4399.26 0 0 1 8.832 18.308c1.134 2.361 2.272 4.722 3.414 7.08 10.506 21.752 18.715 42.656 18.683 67.132l.002 3.409c-.11 8.443-1.21 16.219-3.404 24.356-.865 3.21-1.578 6.309-1.973 9.61 1.802 1.802 4.56 1.194 6.992 1.246l3.799.095 2.02.046c52.861 1.278 52.861 1.278 67.224 14.484 4.604 5.234 5.317 8.47 5.246 15.234-.552 5.682-2.767 9.49-6.906 13.332-6.144 4.042-13.713 3.497-20.765 2.084a218.963 218.963 0 0 1-9.86-2.655l-2.304-.675-2.016-.619c-10.79-2.542-22.243-2.075-33.256-2.225-3.36-.046-6.719-.113-10.079-.232-15.117-1.353-15.117-1.353-28.958 3.154-2.557 2.785-4.347 5.413-6.137 8.73a95.457 95.457 0 0 1-2.89 3.54l-2.36 3.086c-4.151 5.376-8.414 10.646-12.75 15.875-4.237 5.114-8.42 10.258-12.5 15.5-4.725 6.07-9.596 12.013-14.5 17.94a866.886 866.886 0 0 0-11.383 14.044 210.766 210.766 0 0 1-4.554 5.453c-2.22 2.453-2.22 2.453-3.063 5.563 27.016.046 54.033.082 81.049.103 12.544.01 25.088.025 37.631.047 10.933.02 21.865.033 32.797.038 5.79.002 11.579.008 17.368.023 5.448.014 10.897.018 16.345.015 2 0 4 .004 6 .012 2.731.01 5.462.008 8.192.002l2.4.018c4.454-.024 8.079-.602 12.218-2.258.436-8.309-.768-15.499-2.937-23.5l-.842-3.243c-.99-3.787-1.983-7.543-3.22-11.257-.748-6.606-.525-11.852 3.437-17.344 4.378-4.641 9.618-6.373 15.812-6.969 4.791.4 7.919 1.407 11.75 4.313 12.515 16.514 15.882 37.818 16.125 57.937l.07 2.438c.277 12.074-1.91 19.57-10.195 28.625-3.145 2.85-6.136 5.338-10.168 6.77-2.112 1.132-2.112 1.132-2.59 3.882-.265 3.667-.225 7.235-.117 10.91.482 37.568-14.132 72.705-40.125 99.438-28.04 27.74-65.297 42.283-104.44 42.246-38.057-.372-72.844-16.385-99.56-43.246l-2.672-2.672c-6.795-7.133-12.199-14.957-17.328-23.328l-1.086-1.748c-9.963-16.316-15.498-35.384-17.914-54.252l-.39-3.04a226.568 226.568 0 0 1-.61-5.96l-3.078 1.425c-13.818 6.293-26.857 9.734-42.092 9.715l-2.334.009c-2.554.009-5.107.01-7.66.012-1.843.004-3.685.01-5.528.015-4.985.013-9.971.02-14.957.024l-9.36.011c-9.78.014-19.559.024-29.338.027-11.259.005-22.518.022-33.777.051-8.724.022-17.448.032-26.171.033-5.201.002-10.402.007-15.603.025-4.896.017-9.79.019-14.686.01-1.788 0-3.576.004-5.363.014-16.046.084-31.334-1.254-43.865-12.496-10.33-11.371-12.594-26.201-11.93-40.956.118-2.04.254-4.077.408-6.114l.205-2.848.217-2.532c-.11-3.016-.564-4.806-2.088-7.425-5.172-3.383-9.592-3.412-15.55-3.329l-2.86.004c-3.111.01-6.221.04-9.332.075l-6.508.044c-4.545.033-9.089.079-13.633.132-5.813.066-11.625.096-17.438.116-4.48.021-8.96.064-13.44.114-2.142.02-4.285.033-6.427.038-3.002.01-6.001.05-9.003.099l-2.66-.012c-7.924.188-13 3.382-18.465 8.96a356.257 356.257 0 0 0-3.246 3.634 1464.89 1464.89 0 0 1-3.633 3.996l-1.88 2.062c-3.773 4.05-7.732 7.918-11.687 11.79-3.664 3.614-7.093 7.356-10.458 11.248-14.6 16.643-30.783 30.91-53.78 33.029-4.275.16-8.55.184-12.828.21l-7.547.086c-3.952.042-7.905.079-11.857.105-3.824.027-7.647.073-11.47.122l-3.6.01-3.328.05-2.93.025c-2.858.459-3.721 1.108-5.44 3.392-.992 2.466-.992 2.466-1.75 5.375l-1.031 3.503-.578 1.97c-11.5 38.63-31.84 70.416-67.922 90.245-35.988 18.732-75.302 23.405-114.36 11.449-12.61-4.096-24.53-9.872-35.359-17.542l-2.996-2.098c-14.203-10.413-26.61-22.98-36.004-37.902l-2.101-3.317C186.802 1174.868 180.275 1137.337 188 1101c2.129-8.51 4.725-16.865 8-25l-3.443.02c-10.753.06-21.507.106-32.26.135-5.528.016-11.055.037-16.582.07-5.343.034-10.686.051-16.028.06-2.03.005-4.06.015-6.09.032-16.05.123-32.288.054-44.917-11.427-11.184-11.968-13.142-25.818-13.067-41.757-.005-1.469-.01-2.938-.017-4.407-.014-4.005-.01-8.01-.003-12.015.005-4.331-.007-8.662-.018-12.994-.017-8.47-.018-16.942-.012-25.414.004-6.885.002-13.77-.003-20.655l-.002-2.974-.005-5.98c-.014-18.675-.008-37.349.003-56.023.01-17.082-.003-34.163-.027-51.245-.024-17.552-.034-35.103-.027-52.655.003-9.85.001-19.699-.016-29.548-.015-8.38-.016-16.76.002-25.14.008-4.274.01-8.549-.005-12.823-.014-3.914-.01-7.828.01-11.743.004-1.414.001-2.828-.01-4.243-.053-7.849.162-13.615 4.517-20.274 5.527-5.258 10.402-5.351 17.762-5.278C90.376 670.117 92.4 671.09 96 674c3.873 4.994 5.124 8.584 5.136 14.824l.015 3.705v4.092l.014 4.33c.011 3.976.017 7.952.021 11.928.006 4.284.018 8.569.029 12.853.018 7.427.033 14.854.046 22.281.018 10.743.043 21.485.069 32.228.043 17.434.082 34.867.118 52.301l.007 3.164a1024775.459 1024775.459 0 0 1 .104 50.78c.036 17.365.076 34.732.119 52.098.026 10.718.049 21.437.067 32.155.012 7.342.029 14.683.047 22.025.011 4.239.02 8.478.025 12.718a5013 5013 0 0 0 .026 11.634c.004 1.405.006 2.811.006 4.217 0 1.905.008 3.811.015 5.717l.007 3.212c.114 2.413.434 4.435 1.13 6.738 14.725.093 29.45.164 44.176.207 6.838.02 13.676.048 20.514.094 6.6.045 13.2.068 19.801.078 2.517.007 5.034.022 7.55.043 3.529.03 7.056.034 10.585.032l3.143.043c7.59-.043 12.973-1.574 18.672-6.689l2.12-2.371c21.221-21.995 54.294-37.174 84.9-38.599 33.077-.383 33.077-.383 45.538 3.162l2.468.7c24.71 7.24 44.943 19.294 63.946 36.483l2.086 1.879 1.719 1.598c3.698 2.781 7.309 3.59 11.87 3.594l3.054.018 3.334-.012 3.558.012c3.255.008 6.51.008 9.765.004 3.512-.003 7.024.006 10.536.014 6.878.012 13.756.014 20.634.012 5.588-.002 11.176 0 16.764.004l2.41.002 4.844.004c15.145.01 30.29.008 45.434.002 13.865-.005 27.73.006 41.596.025 14.23.02 28.46.028 42.69.024 7.993-.002 15.985 0 23.977.015 6.8.012 13.602.013 20.403.001 3.472-.006 6.943-.007 10.415.005 3.758.01 7.516.003 11.274-.01l3.348.022 3.038-.022h2.63c2.737-.464 3.582-1.148 5.207-3.374 1.494-3.739 1.14-7.833 1.129-11.8l.005-2.409c.005-2.679.002-5.358 0-8.037l.007-5.801c.006-5.327.006-10.654.005-15.98 0-5.74.005-11.48.01-17.22.008-11.25.01-22.5.011-33.749 0-9.141.003-18.282.006-27.424.007-21.683.013-43.365.013-65.048V827.53c-.001-21.973.006-43.946.02-65.92.015-24.677.024-49.354.023-74.032 0-13.07.002-26.14.013-39.21.01-11.126.012-22.253.005-33.38-.004-5.679-.004-11.358.005-17.038.008-5.196.007-10.392-.002-15.588-.002-1.883 0-3.766.006-5.65.007-2.553.001-5.107-.007-7.66l.015-2.23c-.03-4.302-.547-7.863-2.264-11.822-2.316-1.159-3.635-1.127-6.214-1.13l-2.7-.011-2.99.004-3.172-.009c-3.548-.007-7.096-.008-10.644-.008l-7.658-.014c-6.307-.01-12.614-.016-18.92-.02-7.55-.005-15.1-.016-22.65-.027-18.25-.025-36.5-.04-54.749-.053l-18.126-.014a240830.975 240830.975 0 0 0-118.628-.069h-2.801a96350.47 96350.47 0 0 1-89.965-.085 75935.976 75935.976 0 0 0-105.475-.078h-2.593c-13.797-.004-27.593-.024-41.389-.05-13.854-.027-27.709-.034-41.563-.023-8.24.006-16.48-.003-24.72-.03-6.14-.02-12.278-.013-18.418.004-2.494.003-4.988-.003-7.481-.018a887.34 887.34 0 0 0-10.113.013l-2.984-.04c-2.453.032-4.66.092-7.047.658-2.817 3.198-3.374 5.758-3.385 9.954l-.03 2.903.009 3.103-.033 3.225c-.034 3.396-.05 6.793-.06 10.19-.015 4.466-.05 8.932-.095 13.398l.01 3.09c-.077 7.298-.957 12.225-5.79 17.949-5.17 4.308-10.06 4.683-16.61 4.57-4.558-.578-7.658-2.295-11.016-5.382-3.495-4.624-4.119-8.793-4.177-14.48l-.039-3.33-.022-3.593-.025-3.723c-.013-2.605-.024-5.21-.032-7.815-.011-2.649-.032-5.297-.061-7.945-.043-3.84-.06-7.678-.07-11.517l-.053-3.537c.036-13.574 3.815-24.854 13.135-34.834 10.772-10.01 23.375-11.527 37.442-11.505 1.434-.005 2.868-.01 4.302-.017 3.927-.016 7.854-.02 11.78-.021 4.24-.004 8.48-.019 12.72-.033 7.341-.022 14.683-.037 22.024-.047 10.614-.015 21.228-.04 31.842-.068 17.222-.046 34.443-.083 51.665-.114 16.727-.03 33.454-.064 50.182-.104l3.125-.008 15.523-.037c42.913-.103 85.826-.193 128.74-.272l-2.51-1.871-3.284-2.455-1.65-1.23C432.64 504.018 427.328 499.103 422 494l-1.68-1.582C405.508 478.434 394.13 462.616 384 445l-1.12-1.912c-26.427-45.365-32.34-104-19.267-154.471C368.267 271.547 374.76 255.632 383 240l1.797-3.454c8.194-15.057 18.749-28.833 30.744-41.057a402.118 402.118 0 0 0 4.381-4.564C452.26 157.251 498.705 135.617 545 131l2.953-.332c59.45-5.717 119.078 13.83 163.243 53.969ZM482 184l-3.11 1.644C465.24 193.226 453.206 203.2 442 214l-2.129 1.972c-6.364 6.055-11.644 12.994-16.87 20.028l-1.275 1.697c-27.086 36.602-37.801 85.314-31.2 130.086C396.846 406.403 413.904 439.94 441 468l2.453 2.609c18.293 19 51.457 42.571 78.514 44.533l2.1.025 2.428.035 2.638.022 2.8.035c9.714.11 19.427.158 29.14.2 4.59.023 9.179.064 13.768.124 5.568.071 11.135.107 16.704.12 2.104.01 4.21.032 6.314.067 14.72.233 26.61-1.935 40.141-7.77l2.364-1.01c44.42-19.154 78.685-55.983 96.73-100.631 6.814-17.73 11.328-37.338 11.906-56.36l.121-3.828c1.058-50.966-19.207-95.607-53.332-132.566-29.953-30.992-74.877-50.93-117.965-51.809a926.724 926.724 0 0 0-8.136-.046l-2.15-.002c-30.484.045-58.728 7.928-85.538 22.252Zm287.262 372.363c-4.057 5.262-3.479 13.571-3.574 19.949l-.054 2.065c.006 4.382.682 7.142 3.366 10.623 3.077 1.538 6.306 1.133 9.682 1.12l2.43.002c2.703.002 5.405-.003 8.107-.009h5.794c5.256 0 10.512-.005 15.768-.012 5.488-.006 10.976-.007 16.464-.008 10.398-.003 20.796-.011 31.194-.021 11.836-.012 23.671-.017 35.506-.022 24.352-.01 48.704-.028 73.055-.05-.774-1.894-1.552-3.785-2.332-5.676l-1.312-3.193c-4.424-10.216-10.467-18.775-20.715-23.768-7.083-2.796-13.351-4.486-20.979-4.497l-3.874-.013-4.23.001-4.47-.01c-4.04-.009-8.082-.011-12.123-.012-2.526 0-5.05-.003-7.576-.005-8.811-.01-17.622-.014-26.433-.013-8.212 0-16.424-.01-24.636-.025-7.053-.014-14.106-.019-21.16-.018-4.211 0-8.423-.003-12.634-.013-3.96-.01-7.92-.01-11.879-.003-1.452.001-2.905-.001-4.357-.007a830.052 830.052 0 0 0-5.952.004l-3.363-.001c-3.809.318-6.698 1.247-9.713 3.612ZM767 630c-1.081 3.243-1.14 5.631-1.16 9.044l-.03 3.773c-.005 1.36-.01 2.72-.013 4.081l-.017 4.189c-.01 2.927-.017 5.854-.02 8.78-.006 3.746-.03 7.49-.058 11.235a1457.6 1457.6 0 0 0-.025 8.653 564.04 564.04 0 0 1-.025 4.14 515.722 515.722 0 0 0-.008 5.801l-.011 3.33c.42 3.397 1.291 5.27 3.367 7.974 3.104 1.034 5.962 1.285 9.207 1.543C797.48 704.145 813.311 709.781 827 724c12.929 15.318 15.445 33.7 15.41 53.007-.004 2.772.01 5.543.03 8.314.042 6.87.053 13.74.066 20.611.011 5.838.035 11.675.074 17.513.014 2.72.01 5.44.005 8.161l.03 5.018-.018 2.266c.06 5.162 1 8.63 3.403 13.11 3.09 2.06 4.535 2.402 8.121 2.894l3.068.449 3.249.469c19.407 3.043 35.564 10.687 47.414 26.906 9.299 14.203 11.342 30.818 11.23 47.398l-.01 3.255a3220.52 3220.52 0 0 1-.027 6.953c-.018 3.67-.028 7.34-.036 11.009-.025 10.428-.06 20.856-.105 31.284-.027 6.39-.044 12.781-.055 19.172-.006 2.431-.016 4.863-.03 7.295-.019 3.396-.026 6.792-.03 10.188l-.027 3.037c-.063 8.576-.063 8.576 4.238 15.69 8.896-.32 17.118-5.413 23.063-11.73 3.53-4.136 6.86-8.43 10.187-12.73 3.028-3.913 6.157-7.738 9.301-11.559 3.016-3.67 6.015-7.356 9.012-11.043l1.71-2.105a1911.71 1911.71 0 0 0 10.57-13.145c3.44-4.285 6.912-8.543 10.38-12.805 2.94-3.616 5.872-7.238 8.777-10.882 4.04-5.067 8.133-10.091 12.223-15.118 2.94-3.616 5.872-7.238 8.777-10.882 5.055-6.337 10.18-12.617 15.295-18.904 2.736-3.364 5.47-6.73 8.205-10.096l3.25-4 1.625-2 6.502-8.002 3.233-3.983c2.783-3.43 5.577-6.853 8.386-10.262 3.203-3.89 6.367-7.81 9.504-11.753l2.184-2.723 1.691-2.277 1.367-1.813c1.62-4.672.127-9.751-1.833-14.127a272.566 272.566 0 0 0-2.057-4.127l-1.116-2.264c-1.193-2.416-2.402-4.824-3.61-7.232-.835-1.683-1.667-3.367-2.498-5.052-1.638-3.317-3.28-6.63-4.927-9.943a1093.274 1093.274 0 0 1-7.826-16.13l-1.264-2.648a2894.41 2894.41 0 0 1-7.736-16.387 95565.995 95565.995 0 0 0-5.02-10.701c-5.604-11.943-11.339-23.818-17.127-35.673a1578.11 1578.11 0 0 1-15.335-32.385c-4.95-10.721-10.094-21.345-15.281-31.954-2.796-5.723-5.59-11.441-8.194-17.256l-1.083-2.403c-.606-1.361-1.2-2.728-1.777-4.101-1.918-4.299-4.348-7.623-8.558-9.804-9.311-2.134-19.792-1.156-29.292-1.162l-5.852-.015c-5.274-.013-10.549-.02-15.823-.024l-9.893-.011c-10.326-.014-20.652-.023-30.978-.027-11.907-.005-23.814-.022-35.72-.051-9.218-.022-18.435-.032-27.652-.033-5.5-.001-11.001-.007-16.501-.025a3174.09 3174.09 0 0 0-15.506-.01c-1.895 0-3.79-.004-5.685-.014a914.51 914.51 0 0 0-7.769.004l-2.263-.024c-5.133.048-8.626.962-13.066 3.392Zm0 112c-1.175 3.525-1.138 6.696-1.127 10.363l-.005 2.291c-.004 2.54 0 5.08.003 7.62l-.006 5.456c-.004 4.944-.002 9.888 0 14.832.003 5.167.001 10.335 0 15.503-.002 8.679 0 17.358.005 26.037.005 10.042.004 20.084-.002 30.127-.005 8.613-.005 17.226-.003 25.84.002 5.147.002 10.296-.001 15.444-.003 4.84-.001 9.678.005 14.518.001 1.779 0 3.558-.001 5.337-.003 2.422 0 4.845.005 7.268l-.007 2.148c.013 3.023.17 5.322 1.134 8.216 2.368 1.183 3.8 1.13 6.441 1.14l2.83.017 3.114.004 3.272.015a1007425.226 1007425.226 0 0 1 18.193.044c5.205.01 10.41.016 15.616.02 5.356.004 10.712.018 16.069.04 6.454.028 12.907.041 19.361.043 2.466.003 4.931.011 7.397.024 3.441.017 6.881.016 10.322.009l3.114.028 2.83-.017 2.467.004L880 934c3.417-5.125 2.497-11.022 2-17-1.788-8.461-5.785-15.152-12.773-20.309-9.943-5.727-22.138-4.774-33.184-4.662-19.192.12-19.192.12-26.043-6.03-3.437-4.622-4.12-9.13-4.138-14.785l-.016-2.833-.004-3.072-.015-3.263c-.01-2.337-.02-4.674-.026-7.011a4099.02 4099.02 0 0 0-.053-11.112c-.062-10.53-.116-21.061-.15-31.592a5316.59 5316.59 0 0 0-.1-19.333c-.014-2.45-.023-4.901-.026-7.352a1610.62 1610.62 0 0 0-.055-10.31l.009-3.04c-.119-10.155-2.246-18.96-9.488-26.421-7.979-5.093-20.352-9.6-28.938-3.875Zm341 143a79.251 79.251 0 0 0-2.773 3.226l-1.733 2.107-1.869 2.292-1.917 2.338a853.257 853.257 0 0 0-12.733 16.006c-3.5 4.48-7.15 8.814-10.846 13.133-3.842 4.508-7.507 9.14-11.149 13.812a651.734 651.734 0 0 1-10.542 13.12c-7.043 8.567-14.055 17.157-20.875 25.903-5.219 6.686-10.608 13.225-16.012 19.762-7.453 9.017-14.845 18.084-22.05 27.3a1061.582 1061.582 0 0 1-17.076 21.27 669.41 669.41 0 0 0-3.604 4.426c-12.115 14.427-29.234 22.983-47.82 25.305-10.574.698-21.192.565-31.783.541-4.137-.004-8.274.016-12.41.033-7.815.03-15.63.042-23.444.046-14.014.007-28.028.036-42.042.085-4.91.016-9.819.022-14.728.018-3.051 0-6.102.008-9.153.017-1.41.003-2.82.002-4.229-.002-9.814-.143-9.814-.143-19.212 2.262-4.912 4.912-4.212 11.38-4.25 17.875l-.062 2.683c-.031 5.232.33 8.939 3.312 13.442 2.97 1.484 5.996 1.148 9.252 1.147l2.292.01c2.548.012 5.095.016 7.643.02a9707.675 9707.675 0 0 0 23.458.061l6.197.012c9.712.02 19.423.033 29.135.042 11.198.01 22.395.036 33.592.076 8.66.03 17.32.045 25.98.049 5.169.002 10.338.01 15.506.036 4.872.023 9.743.028 14.614.017 1.78 0 3.56.006 5.34.02 12.81.094 25.444-.434 35.679-9.182 7.314-7.301 13.737-15.478 20.14-23.574a1135.97 1135.97 0 0 1 8.36-10.36l1.683-2.07 3.424-4.208c2.736-3.364 5.47-6.73 8.205-10.096l3.25-4 1.625-2 6.5-8 3.246-3.996c2.73-3.361 5.462-6.72 8.2-10.075 5.093-6.247 10.16-12.51 15.117-18.867 4.102-5.26 8.308-10.425 12.562-15.562 4.732-5.716 9.396-11.472 13.95-17.33 2.337-3.003 4.7-5.978 7.117-8.917 15.2-18.532 24.583-36.345 22.492-60.93-.735-6.634-2.57-12.966-4.559-19.323h-1Zm-340.612 88.675c-1.723 2.886-1.889 4.684-1.89 8.04l-.028 3.478.034 3.744-.004 3.855c.001 2.69.01 5.38.034 8.07.028 3.443.025 6.886.013 10.33-.01 3.29.006 6.58.02 9.87l-.01 3.744.04 3.479.016 3.059c.457 3.137 1.227 4.363 3.387 6.656 2.117.598 2.117.598 4.517.507l2.804.035 3.07-.025 3.238.021c3.54.018 7.08.006 10.621-.007 2.455.002 4.91.006 7.364.011 5.149.006 10.297-.002 15.445-.021 6.608-.023 13.215-.01 19.824.014 5.07.015 10.14.01 15.21 0 2.436-.003 4.873 0 7.31.01 3.403.01 6.804-.006 10.207-.028l3.07.025 2.804-.035 2.438-.004c2.249-.345 2.249-.345 3.836-2.37 1.605-2.756 1.63-4.666 1.646-7.848l.039-3.48-.01-3.743.017-3.855c.006-2.69.006-5.38-.004-8.07-.011-3.443.009-6.886.038-10.33.023-3.29.016-6.58.012-9.87l.034-3.744-.028-3.479v-3.058c-.355-2.713-.355-2.713-1.89-4.981-4.115-2.64-8.126-2.232-12.916-2.193l-3.175-.021c-3.465-.018-6.93-.006-10.396.007a7461.93 7461.93 0 0 1-7.218-.011c-5.044-.006-10.088.002-15.131.021-6.47.023-12.94.01-19.41-.014-4.969-.015-9.938-.01-14.906 0-2.386.003-4.772 0-7.158-.01-3.333-.01-6.664.006-9.997.028l-2.998-.025c-5.252.041-5.252.041-9.92 2.218Zm-518.82 89.037c-18.538 21.482-27.286 48.47-25.78 76.717 2.383 28.957 16.512 54.536 38.212 73.57 18.29 14.995 41.573 23.454 65.188 23.313l3.033-.017c28.1-.455 53.801-12.64 73.482-32.58 19.018-20.015 29.088-47.65 28.547-75.145-1.703-24.323-9.41-47.493-26.25-65.57l-1.437-1.578c-7.687-8.377-15.68-14.816-25.563-20.422l-2.988-1.707c-42.266-22.592-94.784-11.703-126.444 23.42ZM459 1076c1.395 18.974 1.395 18.974 10.563 35.312 3.167 2.193 4.798 2.815 8.589 2.865l2.602.038 2.828.023 2.925.024c2.052.014 4.104.025 6.156.033 3.1.017 6.197.06 9.296.105 20.16.16 32.635-4.032 47.167-18.286 10.031-9.221 10.031-9.221 17.874-20.114H459Zm575 45c-5.026 7.538-2.032 21.086-.408 29.709 5.751 27.934 20.908 52.325 44.904 68.162 26.349 16.308 55.225 20.522 85.504 14.129 14.27-3.555 26.675-10.775 38-20l2.207-1.743c21.519-17.74 33.343-45.615 36.473-72.73 1.337-8.693 1.337-8.693-1.173-16.627-3.517-2.666-6.821-2.54-11.07-2.58l-2.51-.065c-1.747-.04-3.496-.072-5.244-.094a582.737 582.737 0 0 1-8.019-.177c-1.7-.036-3.4-.07-5.101-.102l-2.419-.06c-5.4-.09-5.4-.09-10.144 2.178-2.286 4.018-2.306 8.113-2.437 12.625-.786 16.114-6.44 30.344-18.563 41.375-13.273 10.343-28.403 14.353-45 13-14.865-2.456-28.728-8.823-38-21-6.996-11.273-10.172-21.722-10.566-34.909-.194-5.837-.194-5.837-2.434-11.091-4.608-1.971-8.65-2.258-13.629-2.266l-2.158-.006c-1.496-.001-2.993.002-4.49.01-2.282.012-4.564 0-6.846-.012-1.46.001-2.92.004-4.38.008l-3.995.007c-3.351.247-5.564.663-8.502 2.259Zm85 1c-3.227 4.234-2.573 9.947-2 15 2.04 6.226 6.79 10.226 12.375 13.312 6.569 1.72 11.577.892 17.578-2.047 4.134-2.556 6.335-5.705 8.36-10.14 1.011-4.598 1.194-8.784.187-13.438-3.482-3.918-9.395-4.834-14.41-5.305a327.95 327.95 0 0 0-5.152-.257l-2.604-.18c-5.606-.274-9.449.196-14.334 3.055Z" data-color="1"/><path fill="#333" d="m208.259 729.743 2.194-.01c2.433-.01 4.866-.005 7.299 0 1.759-.004 3.518-.008 5.277-.014 4.84-.012 9.68-.012 14.52-.01 5.217 0 10.435-.01 15.652-.02 10.225-.016 20.45-.022 30.674-.023 8.31 0 16.62-.005 24.93-.011 23.555-.018 47.109-.027 70.663-.026h7.703c20.612.002 41.224-.017 61.836-.046a44108.5 44108.5 0 0 1 63.473-.04c11.88 0 23.762-.005 35.643-.027a9658.01 9658.01 0 0 1 30.348-.009c5.161.007 10.323.007 15.484-.01 4.727-.016 9.453-.013 14.18.004 1.708.003 3.416 0 5.125-.012 18.748-.114 18.748-.114 25.34 5.994 4.642 5.239 4.692 9.878 4.611 16.572-.384 5.361-2.232 7.966-5.96 11.695-5.6 3.876-11.01 4.5-17.709 4.505l-2.185.01c-2.412.008-4.823.002-7.235-.004a4746.936 4746.936 0 0 1-19.649.015c-5.179-.002-10.358.007-15.538.014-10.145.013-20.29.015-30.436.013-8.246-.002-16.492 0-24.738.004l-3.555.002-7.15.003c-22.355.011-44.71.009-67.065.003-20.454-.005-40.907.006-61.36.025-21 .02-42 .028-62.999.024-11.79-.002-23.58 0-35.371.015-10.037.011-20.075.013-30.112 0-5.12-.005-10.242-.006-15.363.006-4.69.01-9.378.008-14.067-.006-1.695-.003-3.39 0-5.086.007-19.279.085-19.279.085-25.789-5.104L190.5 761.5l-1.406-1.781c-3.163-4.971-2.621-11.065-2.094-16.719 1.599-4.899 4.735-8.19 9-11 4.173-2.06 7.63-2.252 12.259-2.257ZM210.387 822.746l2.162-.01c2.386-.008 4.771-.002 7.157.004l5.19-.012c4.75-.01 9.499-.008 14.248-.004 5.125.003 10.249-.006 15.373-.014 10.038-.012 20.077-.014 30.115-.012a33066.842 33066.842 0 0 0 35.077-.01c22.13-.01 44.259-.008 66.388-.002 20.238.005 40.476-.006 60.714-.025 20.784-.02 41.567-.028 62.35-.024 11.668.002 23.335 0 35.002-.015 9.934-.012 19.868-.013 29.803-.001 5.067.006 10.133.007 15.2-.005 4.643-.01 9.286-.008 13.93.006 1.674.003 3.35 0 5.024-.008 22.898-.102 22.898-.102 30.505 5.824 4.989 5.383 4.81 10.027 4.683 17.203-.39 4.25-1.24 6.37-4.308 9.36-6.984 4.835-14.107 6.248-22.537 6.254l-2.175.01c-2.393.008-4.786.002-7.18-.004a4681.336 4681.336 0 0 1-19.513.015c-5.143-.002-10.287.007-15.43.015-10.074.012-20.148.014-30.221.012-8.187-.002-16.374 0-24.56.004l-3.53.002-7.1.003c-22.195.011-44.39.01-66.584.003-20.309-.005-40.617.006-60.926.025-20.851.02-41.703.028-62.554.024-11.707-.002-23.414 0-35.121.015-9.965.012-19.93.013-29.895.001-5.084-.006-10.169-.007-15.253.005-4.655.01-9.31.008-13.964-.006-1.683-.003-3.367 0-5.05.007-18.052.08-18.052.08-25.782-5.76-4.135-4.136-4.915-7.806-4.938-13.563.138-6.597 1.342-10.091 6.063-14.813 5.575-3.86 10.966-4.5 17.637-4.504ZM208.175 637.869l2.203-.006c2.45-.006 4.9-.004 7.349-.003l5.306-.009c4.87-.008 9.741-.01 14.612-.01 5.249-.002 10.498-.01 15.747-.017 11.48-.013 22.962-.02 34.443-.024l21.497-.011c19.83-.012 39.66-.023 59.49-.026h3.846l3.856-.001 7.736-.002h3.877c20.737-.004 41.474-.022 62.21-.045 21.28-.024 42.557-.036 63.836-.038 11.952 0 23.904-.006 35.856-.024 10.175-.016 20.35-.02 30.525-.013 5.193.004 10.387.003 15.58-.01 4.752-.013 9.504-.012 14.256 0 1.722.002 3.443-.001 5.165-.01 2.336-.01 4.671-.004 7.008.008l3.935-.001c5.218.558 9.272 2.553 12.742 6.498 3.17 3.992 4.617 7.768 4.75 12.875-.79 6.528-2.918 10.785-8.086 14.844-4.75 2.87-8.643 3.407-14.176 3.41-1.086.006-1.086.006-2.195.01-2.434.009-4.867.003-7.301-.003l-5.28.012c-4.842.01-9.683.008-14.525.004-5.22-.003-10.44.006-15.659.014-10.228.012-20.457.014-30.685.012a34303.181 34303.181 0 0 0-35.724.01c-22.532.01-45.064.008-67.596.002-20.62-.005-41.238.006-61.858.025-21.163.02-42.326.028-63.489.024-11.885-.002-23.77 0-35.655.015-10.118.012-20.237.013-30.355.001a4443.26 4443.26 0 0 0-15.49.005c-4.728.01-9.454.008-14.181-.006-1.71-.003-3.42 0-5.13.007-2.326.01-4.65.002-6.976-.01h-3.914c-7.067-.712-12.12-2.822-16.725-8.376-3.228-5.136-2.57-11.165-2-17 1.635-5.388 5.123-8.358 10-11 3.69-1.259 7.302-1.127 11.175-1.131ZM207.047 915.866l2.198-.007c2.45-.007 4.9-.006 7.349-.006l5.3-.011c4.868-.01 9.737-.014 14.606-.016 5.246-.004 10.491-.014 15.737-.023 12.675-.02 25.35-.03 38.025-.038l17.898-.015a120659.824 120659.824 0 0 1 74.916-.045l3.876-.001c20.73-.009 41.459-.034 62.188-.067 21.272-.033 42.543-.05 63.815-.054 11.947-.002 23.895-.01 35.842-.036 10.174-.022 20.347-.03 30.52-.02 5.193.004 10.384.002 15.576-.017 4.753-.018 9.506-.017 14.258-.001a623.8 623.8 0 0 0 5.159-.014c16.076-.104 16.076-.104 22.69 4.505 4.592 4.545 6.173 7.824 6.313 14.25-.048 5.457-.428 8.656-4.313 12.75-5.456 5.037-9.935 6.25-17.292 6.257l-2.205.011c-2.446.01-4.891.005-7.337 0-1.768.003-3.536.008-5.304.013-4.865.013-9.73.012-14.594.01-5.244 0-10.488.01-15.732.02-10.277.017-20.553.022-30.83.023-8.351.001-16.703.005-25.055.012-23.67.017-47.34.027-71.009.025h-7.741c-20.716-.001-41.432.018-62.149.046-21.262.029-42.525.043-63.787.04-11.941 0-23.882.006-35.823.027a9754.42 9754.42 0 0 1-30.498.01c-5.188-.007-10.375-.007-15.563.01-4.75.016-9.498.013-14.247-.005-1.718-.003-3.436.001-5.154.012-17.538.106-17.538.106-24.555-6.194-3.914-6.103-4.114-12.232-3.125-19.317 2.286-4.922 5.717-7.81 10-11 3.532-1.177 6.317-1.129 10.047-1.134Z" data-color="1"/><path fill="#EE2737" d="M576 213c4.97 3.388 7.806 7.086 9 13 .091 1.537.133 3.077.138 4.617.005.922.01 1.844.017 2.795l.003 3.045.015 3.223c.01 2.31.02 4.62.026 6.931.012 3.657.031 7.313.053 10.97.062 10.396.116 20.792.15 31.189.02 6.359.056 12.718.1 19.076.014 2.424.023 4.847.026 7.27.005 3.39.028 6.78.055 10.169l-.009 3.032c.074 6.122.606 10.925 5.21 15.427l1.997 1.412 2.272 1.637 2.447 1.707 5.184 3.719 2.679 1.902c4.097 2.919 8.15 5.895 12.2 8.879l2.363 1.737c6.34 4.678 12.574 9.484 18.77 14.35 4.295 3.369 8.64 6.64 13.054 9.85 6.686 5.01 11.915 9.459 13.25 18.063.08 6.363-1.32 10.83-5 16-4.638 4.638-8.698 6.742-15.281 7.137-11.813-.355-20.841-9.63-29.71-16.572a1501.316 1501.316 0 0 0-32.634-24.69l-2.324-1.712a1205.215 1205.215 0 0 0-12.215-8.866l-2.58-1.863a574.875 574.875 0 0 0-4.852-3.466C552.085 366.943 546.436 361.151 544 351c-.411-4.061-.41-8.09-.388-12.17l-.016-3.596c-.011-3.229-.009-6.458.001-9.687.008-3.395 0-6.79-.004-10.186a4871.8 4871.8 0 0 1 .016-17.097c.016-6.57.01-13.138-.006-19.708-.013-5.661-.015-11.323-.007-16.984.004-3.372.005-6.744-.005-10.116-.008-3.762.004-7.524.02-11.286l-.018-3.344c.06-7.267.598-14.306 5.274-20.166 8.81-7.01 16.668-9.295 27.133-3.66Z" data-color="2"/><path fill="#333" d="M363.574 1086.883c11.42 9.578 18.8 23.27 20.426 38.117 1.392 16.177-3.05 32.513-13.547 45.04-9.86 10.64-23.12 18.584-37.86 19.198-17.323.38-31.956-2.95-45.04-15.148-11.655-11.442-18.42-26.097-18.588-42.508.79-17.378 7.32-31.705 20.035-43.582 22.627-17.076 51.42-18.052 74.574-1.117ZM312 1119c-4.008 5.663-4.942 11.169-4 18 2.157 6.017 5.732 9.76 11.312 12.813 5.804 1.869 10.274 2.072 15.813-.375 5.09-2.811 9.028-6.899 10.875-12.438.728-6.717.322-12.589-4-18-9.346-8.427-20.851-9.403-30 0Z" data-color="1"/></svg></g></svg>